%TF.GenerationSoftware,KiCad,Pcbnew,(6.0.1)*%
%TF.CreationDate,2023-01-18T20:59:41+05:30*%
%TF.ProjectId,drone,64726f6e-652e-46b6-9963-61645f706362,rev?*%
%TF.SameCoordinates,Original*%
%TF.FileFunction,Soldermask,Top*%
%TF.FilePolarity,Negative*%
%FSLAX46Y46*%
G04 Gerber Fmt 4.6, Leading zero omitted, Abs format (unit mm)*
G04 Created by KiCad (PCBNEW (6.0.1)) date 2023-01-18 20:59:41*
%MOMM*%
%LPD*%
G01*
G04 APERTURE LIST*
G04 Aperture macros list*
%AMRoundRect*
0 Rectangle with rounded corners*
0 $1 Rounding radius*
0 $2 $3 $4 $5 $6 $7 $8 $9 X,Y pos of 4 corners*
0 Add a 4 corners polygon primitive as box body*
4,1,4,$2,$3,$4,$5,$6,$7,$8,$9,$2,$3,0*
0 Add four circle primitives for the rounded corners*
1,1,$1+$1,$2,$3*
1,1,$1+$1,$4,$5*
1,1,$1+$1,$6,$7*
1,1,$1+$1,$8,$9*
0 Add four rect primitives between the rounded corners*
20,1,$1+$1,$2,$3,$4,$5,0*
20,1,$1+$1,$4,$5,$6,$7,0*
20,1,$1+$1,$6,$7,$8,$9,0*
20,1,$1+$1,$8,$9,$2,$3,0*%
G04 Aperture macros list end*
%ADD10R,2.200000X2.200000*%
%ADD11O,2.200000X2.200000*%
%ADD12RoundRect,0.100000X0.100000X-0.130000X0.100000X0.130000X-0.100000X0.130000X-0.100000X-0.130000X0*%
%ADD13R,1.500000X2.000000*%
%ADD14R,3.800000X2.000000*%
%ADD15RoundRect,0.150000X0.587500X0.150000X-0.587500X0.150000X-0.587500X-0.150000X0.587500X-0.150000X0*%
%ADD16RoundRect,0.100000X-0.130000X-0.100000X0.130000X-0.100000X0.130000X0.100000X-0.130000X0.100000X0*%
%ADD17RoundRect,0.150000X-0.587500X-0.150000X0.587500X-0.150000X0.587500X0.150000X-0.587500X0.150000X0*%
%ADD18R,1.350000X1.350000*%
%ADD19O,1.350000X1.350000*%
%ADD20RoundRect,0.100000X0.130000X0.100000X-0.130000X0.100000X-0.130000X-0.100000X0.130000X-0.100000X0*%
%ADD21RoundRect,0.100000X-0.100000X0.130000X-0.100000X-0.130000X0.100000X-0.130000X0.100000X0.130000X0*%
G04 APERTURE END LIST*
D10*
%TO.C,D4*%
X192375000Y-73525000D03*
D11*
X192375000Y-63365000D03*
%TD*%
D12*
%TO.C,R2*%
X153700000Y-98570000D03*
X153700000Y-97930000D03*
%TD*%
D13*
%TO.C,U1*%
X168475000Y-95100000D03*
D14*
X166175000Y-88800000D03*
D13*
X166175000Y-95100000D03*
X163875000Y-95100000D03*
%TD*%
D11*
%TO.C,z1*%
X144375000Y-63120000D03*
D10*
X144375000Y-73280000D03*
%TD*%
D15*
%TO.C,Q2*%
X151762500Y-99350000D03*
X151762500Y-97450000D03*
X149887500Y-98400000D03*
%TD*%
D16*
%TO.C,LED1*%
X134660000Y-63150000D03*
X135300000Y-63150000D03*
%TD*%
%TO.C,LED2*%
X198022500Y-98550000D03*
X198662500Y-98550000D03*
%TD*%
D17*
%TO.C,Q1*%
X149737500Y-62600000D03*
X149737500Y-64500000D03*
X151612500Y-63550000D03*
%TD*%
D18*
%TO.C,motor-1*%
X134750000Y-67175000D03*
D19*
X134750000Y-69175000D03*
%TD*%
D18*
%TO.C,motor-4*%
X197225000Y-67295000D03*
D19*
X197225000Y-69295000D03*
%TD*%
D16*
%TO.C,R12*%
X150680000Y-79000000D03*
X151320000Y-79000000D03*
%TD*%
D19*
%TO.C,battery-1*%
X192975000Y-103800000D03*
D18*
X190975000Y-103800000D03*
%TD*%
D20*
%TO.C,R9*%
X167115000Y-67375000D03*
X166475000Y-67375000D03*
%TD*%
D16*
%TO.C,R7*%
X150630000Y-91000000D03*
X151270000Y-91000000D03*
%TD*%
D21*
%TO.C,R1*%
X147600000Y-63405000D03*
X147600000Y-64045000D03*
%TD*%
D10*
%TO.C,D1*%
X139550000Y-73280000D03*
D11*
X139550000Y-63120000D03*
%TD*%
D17*
%TO.C,Q3*%
X183312500Y-97400000D03*
X183312500Y-99300000D03*
X185187500Y-98350000D03*
%TD*%
D21*
%TO.C,R3*%
X181400000Y-98180000D03*
X181400000Y-98820000D03*
%TD*%
D10*
%TO.C,D3*%
X193950000Y-88520000D03*
D11*
X193950000Y-98680000D03*
%TD*%
D10*
%TO.C,D2*%
X141025000Y-88795000D03*
D11*
X141025000Y-98955000D03*
%TD*%
D12*
%TO.C,R4*%
X184250000Y-63965000D03*
X184250000Y-63325000D03*
%TD*%
D11*
%TO.C,z4*%
X188175000Y-63390000D03*
D10*
X188175000Y-73550000D03*
%TD*%
D16*
%TO.C,LED4*%
X197420000Y-63570000D03*
X196780000Y-63570000D03*
%TD*%
D18*
%TO.C,rightIfAntennaOnTop1*%
X177400000Y-95200000D03*
D19*
X177400000Y-93200000D03*
X177400000Y-91200000D03*
X177400000Y-89200000D03*
X177400000Y-87200000D03*
X177400000Y-85200000D03*
X177400000Y-83200000D03*
X177400000Y-81200000D03*
X177400000Y-79200000D03*
X177400000Y-77200000D03*
X177400000Y-75200000D03*
X177400000Y-73200000D03*
X177400000Y-71200000D03*
X177400000Y-69200000D03*
X177400000Y-67200000D03*
%TD*%
D18*
%TO.C,MPU1*%
X159450000Y-56875000D03*
D19*
X161450000Y-56875000D03*
X163450000Y-56875000D03*
X165450000Y-56875000D03*
X167450000Y-56875000D03*
X169450000Y-56875000D03*
X171450000Y-56875000D03*
X173450000Y-56875000D03*
%TD*%
D16*
%TO.C,R8*%
X150605000Y-89000000D03*
X151245000Y-89000000D03*
%TD*%
D10*
%TO.C,z3*%
X189075000Y-88495000D03*
D11*
X189075000Y-98655000D03*
%TD*%
D18*
%TO.C,motor-2*%
X136275000Y-95100000D03*
D19*
X136275000Y-93100000D03*
%TD*%
D16*
%TO.C,R10*%
X166580000Y-69400000D03*
X167220000Y-69400000D03*
%TD*%
%TO.C,C1*%
X174030000Y-95750000D03*
X174670000Y-95750000D03*
%TD*%
D15*
%TO.C,Q4*%
X182112500Y-64450000D03*
X182112500Y-62550000D03*
X180237500Y-63500000D03*
%TD*%
D18*
%TO.C,motor-3*%
X198575000Y-94600000D03*
D19*
X198575000Y-92600000D03*
%TD*%
D16*
%TO.C,LED5*%
X148955000Y-73025000D03*
X149595000Y-73025000D03*
%TD*%
%TO.C,R5*%
X179830000Y-73300000D03*
X180470000Y-73300000D03*
%TD*%
D10*
%TO.C,z2*%
X146050000Y-88715000D03*
D11*
X146050000Y-98875000D03*
%TD*%
D18*
%TO.C,leftIfAntennaOnTop1*%
X154425000Y-67000000D03*
D19*
X154425000Y-69000000D03*
X154425000Y-71000000D03*
X154425000Y-73000000D03*
X154425000Y-75000000D03*
X154425000Y-77000000D03*
X154425000Y-79000000D03*
X154425000Y-81000000D03*
X154425000Y-83000000D03*
X154425000Y-85000000D03*
X154425000Y-87000000D03*
X154425000Y-89000000D03*
X154425000Y-91000000D03*
X154425000Y-93000000D03*
X154425000Y-95000000D03*
%TD*%
D16*
%TO.C,LED3*%
X136180000Y-98750000D03*
X136820000Y-98750000D03*
%TD*%
%TO.C,C2*%
X159155000Y-95475000D03*
X159795000Y-95475000D03*
%TD*%
M02*
