%TF.GenerationSoftware,KiCad,Pcbnew,(6.0.1)*%
%TF.CreationDate,2023-01-18T20:59:41+05:30*%
%TF.ProjectId,drone,64726f6e-652e-46b6-9963-61645f706362,rev?*%
%TF.SameCoordinates,Original*%
%TF.FileFunction,Paste,Top*%
%TF.FilePolarity,Positive*%
%FSLAX46Y46*%
G04 Gerber Fmt 4.6, Leading zero omitted, Abs format (unit mm)*
G04 Created by KiCad (PCBNEW (6.0.1)) date 2023-01-18 20:59:41*
%MOMM*%
%LPD*%
G01*
G04 APERTURE LIST*
G04 Aperture macros list*
%AMRoundRect*
0 Rectangle with rounded corners*
0 $1 Rounding radius*
0 $2 $3 $4 $5 $6 $7 $8 $9 X,Y pos of 4 corners*
0 Add a 4 corners polygon primitive as box body*
4,1,4,$2,$3,$4,$5,$6,$7,$8,$9,$2,$3,0*
0 Add four circle primitives for the rounded corners*
1,1,$1+$1,$2,$3*
1,1,$1+$1,$4,$5*
1,1,$1+$1,$6,$7*
1,1,$1+$1,$8,$9*
0 Add four rect primitives between the rounded corners*
20,1,$1+$1,$2,$3,$4,$5,0*
20,1,$1+$1,$4,$5,$6,$7,0*
20,1,$1+$1,$6,$7,$8,$9,0*
20,1,$1+$1,$8,$9,$2,$3,0*%
G04 Aperture macros list end*
%ADD10RoundRect,0.079500X0.100500X-0.079500X0.100500X0.079500X-0.100500X0.079500X-0.100500X-0.079500X0*%
%ADD11R,1.500000X2.000000*%
%ADD12R,3.800000X2.000000*%
%ADD13RoundRect,0.150000X0.587500X0.150000X-0.587500X0.150000X-0.587500X-0.150000X0.587500X-0.150000X0*%
%ADD14RoundRect,0.079500X-0.079500X-0.100500X0.079500X-0.100500X0.079500X0.100500X-0.079500X0.100500X0*%
%ADD15RoundRect,0.150000X-0.587500X-0.150000X0.587500X-0.150000X0.587500X0.150000X-0.587500X0.150000X0*%
%ADD16RoundRect,0.079500X0.079500X0.100500X-0.079500X0.100500X-0.079500X-0.100500X0.079500X-0.100500X0*%
%ADD17RoundRect,0.079500X-0.100500X0.079500X-0.100500X-0.079500X0.100500X-0.079500X0.100500X0.079500X0*%
G04 APERTURE END LIST*
D10*
%TO.C,R2*%
X153700000Y-98595000D03*
X153700000Y-97905000D03*
%TD*%
D11*
%TO.C,U1*%
X168475000Y-95100000D03*
D12*
X166175000Y-88800000D03*
D11*
X166175000Y-95100000D03*
X163875000Y-95100000D03*
%TD*%
D13*
%TO.C,Q2*%
X151762500Y-99350000D03*
X151762500Y-97450000D03*
X149887500Y-98400000D03*
%TD*%
D14*
%TO.C,LED1*%
X135325000Y-63150000D03*
X134635000Y-63150000D03*
%TD*%
%TO.C,LED2*%
X197997500Y-98550000D03*
X198687500Y-98550000D03*
%TD*%
D15*
%TO.C,Q1*%
X149737500Y-62600000D03*
X149737500Y-64500000D03*
X151612500Y-63550000D03*
%TD*%
D14*
%TO.C,R12*%
X151345000Y-79000000D03*
X150655000Y-79000000D03*
%TD*%
D16*
%TO.C,R9*%
X166450000Y-67375000D03*
X167140000Y-67375000D03*
%TD*%
D14*
%TO.C,R7*%
X150605000Y-91000000D03*
X151295000Y-91000000D03*
%TD*%
D17*
%TO.C,R1*%
X147600000Y-63380000D03*
X147600000Y-64070000D03*
%TD*%
D15*
%TO.C,Q3*%
X183312500Y-97400000D03*
X183312500Y-99300000D03*
X185187500Y-98350000D03*
%TD*%
D17*
%TO.C,R3*%
X181400000Y-98155000D03*
X181400000Y-98845000D03*
%TD*%
D10*
%TO.C,R4*%
X184250000Y-63300000D03*
X184250000Y-63990000D03*
%TD*%
D14*
%TO.C,LED4*%
X197445000Y-63570000D03*
X196755000Y-63570000D03*
%TD*%
%TO.C,R8*%
X150580000Y-89000000D03*
X151270000Y-89000000D03*
%TD*%
%TO.C,R10*%
X167245000Y-69400000D03*
X166555000Y-69400000D03*
%TD*%
%TO.C,C1*%
X174695000Y-95750000D03*
X174005000Y-95750000D03*
%TD*%
D13*
%TO.C,Q4*%
X182112500Y-64450000D03*
X182112500Y-62550000D03*
X180237500Y-63500000D03*
%TD*%
D14*
%TO.C,LED5*%
X149620000Y-73025000D03*
X148930000Y-73025000D03*
%TD*%
%TO.C,R5*%
X180495000Y-73300000D03*
X179805000Y-73300000D03*
%TD*%
%TO.C,LED3*%
X136845000Y-98750000D03*
X136155000Y-98750000D03*
%TD*%
%TO.C,C2*%
X159130000Y-95475000D03*
X159820000Y-95475000D03*
%TD*%
M02*
