%TF.GenerationSoftware,KiCad,Pcbnew,(6.0.1)*%
%TF.CreationDate,2023-01-18T20:59:41+05:30*%
%TF.ProjectId,drone,64726f6e-652e-46b6-9963-61645f706362,rev?*%
%TF.SameCoordinates,Original*%
%TF.FileFunction,Legend,Bot*%
%TF.FilePolarity,Positive*%
%FSLAX46Y46*%
G04 Gerber Fmt 4.6, Leading zero omitted, Abs format (unit mm)*
G04 Created by KiCad (PCBNEW (6.0.1)) date 2023-01-18 20:59:41*
%MOMM*%
%LPD*%
G01*
G04 APERTURE LIST*
%ADD10C,0.150000*%
G04 APERTURE END LIST*
D10*
X199194047Y-56692380D02*
X199194047Y-55692380D01*
X198717857Y-56168571D02*
X198384523Y-56168571D01*
X198241666Y-56692380D02*
X198717857Y-56692380D01*
X198717857Y-55692380D01*
X198241666Y-55692380D01*
X197813095Y-56168571D02*
X197479761Y-56168571D01*
X197336904Y-56692380D02*
X197813095Y-56692380D01*
X197813095Y-55692380D01*
X197336904Y-55692380D01*
X196908333Y-56168571D02*
X196575000Y-56168571D01*
X196432142Y-56692380D02*
X196908333Y-56692380D01*
X196908333Y-55692380D01*
X196432142Y-55692380D01*
X195289285Y-56644761D02*
X195146428Y-56692380D01*
X194908333Y-56692380D01*
X194813095Y-56644761D01*
X194765476Y-56597142D01*
X194717857Y-56501904D01*
X194717857Y-56406666D01*
X194765476Y-56311428D01*
X194813095Y-56263809D01*
X194908333Y-56216190D01*
X195098809Y-56168571D01*
X195194047Y-56120952D01*
X195241666Y-56073333D01*
X195289285Y-55978095D01*
X195289285Y-55882857D01*
X195241666Y-55787619D01*
X195194047Y-55740000D01*
X195098809Y-55692380D01*
X194860714Y-55692380D01*
X194717857Y-55740000D01*
X193955952Y-56168571D02*
X193813095Y-56216190D01*
X193765476Y-56263809D01*
X193717857Y-56359047D01*
X193717857Y-56501904D01*
X193765476Y-56597142D01*
X193813095Y-56644761D01*
X193908333Y-56692380D01*
X194289285Y-56692380D01*
X194289285Y-55692380D01*
X193955952Y-55692380D01*
X193860714Y-55740000D01*
X193813095Y-55787619D01*
X193765476Y-55882857D01*
X193765476Y-55978095D01*
X193813095Y-56073333D01*
X193860714Y-56120952D01*
X193955952Y-56168571D01*
X194289285Y-56168571D01*
X192527380Y-56692380D02*
X192527380Y-55692380D01*
X191955952Y-56692380D01*
X191955952Y-55692380D01*
X191479761Y-56692380D02*
X191479761Y-55692380D01*
X191146428Y-55692380D02*
X190575000Y-55692380D01*
X190860714Y-56692380D02*
X190860714Y-55692380D01*
X189479761Y-56692380D02*
X189479761Y-55692380D01*
X189241666Y-55692380D01*
X189098809Y-55740000D01*
X189003571Y-55835238D01*
X188955952Y-55930476D01*
X188908333Y-56120952D01*
X188908333Y-56263809D01*
X188955952Y-56454285D01*
X189003571Y-56549523D01*
X189098809Y-56644761D01*
X189241666Y-56692380D01*
X189479761Y-56692380D01*
X187955952Y-55740000D02*
X188051190Y-55692380D01*
X188194047Y-55692380D01*
X188336904Y-55740000D01*
X188432142Y-55835238D01*
X188479761Y-55930476D01*
X188527380Y-56120952D01*
X188527380Y-56263809D01*
X188479761Y-56454285D01*
X188432142Y-56549523D01*
X188336904Y-56644761D01*
X188194047Y-56692380D01*
X188098809Y-56692380D01*
X187955952Y-56644761D01*
X187908333Y-56597142D01*
X187908333Y-56263809D01*
X188098809Y-56263809D01*
X187479761Y-56692380D02*
X187479761Y-55692380D01*
X187098809Y-55692380D01*
X187003571Y-55740000D01*
X186955952Y-55787619D01*
X186908333Y-55882857D01*
X186908333Y-56025714D01*
X186955952Y-56120952D01*
X187003571Y-56168571D01*
X187098809Y-56216190D01*
X187479761Y-56216190D01*
X198765476Y-59626666D02*
X198289285Y-59626666D01*
X198860714Y-59912380D02*
X198527380Y-58912380D01*
X198194047Y-59912380D01*
X197860714Y-59912380D02*
X197860714Y-58912380D01*
X197860714Y-59293333D02*
X197765476Y-59245714D01*
X197575000Y-59245714D01*
X197479761Y-59293333D01*
X197432142Y-59340952D01*
X197384523Y-59436190D01*
X197384523Y-59721904D01*
X197432142Y-59817142D01*
X197479761Y-59864761D01*
X197575000Y-59912380D01*
X197765476Y-59912380D01*
X197860714Y-59864761D01*
X196955952Y-59912380D02*
X196955952Y-58912380D01*
X196527380Y-59912380D02*
X196527380Y-59388571D01*
X196575000Y-59293333D01*
X196670238Y-59245714D01*
X196813095Y-59245714D01*
X196908333Y-59293333D01*
X196955952Y-59340952D01*
X196051190Y-59912380D02*
X196051190Y-59245714D01*
X196051190Y-58912380D02*
X196098809Y-58960000D01*
X196051190Y-59007619D01*
X196003571Y-58960000D01*
X196051190Y-58912380D01*
X196051190Y-59007619D01*
X195622619Y-59864761D02*
X195527380Y-59912380D01*
X195336904Y-59912380D01*
X195241666Y-59864761D01*
X195194047Y-59769523D01*
X195194047Y-59721904D01*
X195241666Y-59626666D01*
X195336904Y-59579047D01*
X195479761Y-59579047D01*
X195575000Y-59531428D01*
X195622619Y-59436190D01*
X195622619Y-59388571D01*
X195575000Y-59293333D01*
X195479761Y-59245714D01*
X195336904Y-59245714D01*
X195241666Y-59293333D01*
X194765476Y-59912380D02*
X194765476Y-58912380D01*
X194336904Y-59912380D02*
X194336904Y-59388571D01*
X194384523Y-59293333D01*
X194479761Y-59245714D01*
X194622619Y-59245714D01*
X194717857Y-59293333D01*
X194765476Y-59340952D01*
X193479761Y-59864761D02*
X193575000Y-59912380D01*
X193765476Y-59912380D01*
X193860714Y-59864761D01*
X193908333Y-59769523D01*
X193908333Y-59388571D01*
X193860714Y-59293333D01*
X193765476Y-59245714D01*
X193575000Y-59245714D01*
X193479761Y-59293333D01*
X193432142Y-59388571D01*
X193432142Y-59483809D01*
X193908333Y-59579047D01*
X193003571Y-59912380D02*
X193003571Y-58912380D01*
X192908333Y-59531428D02*
X192622619Y-59912380D01*
X192622619Y-59245714D02*
X193003571Y-59626666D01*
X192432142Y-60007619D02*
X191670238Y-60007619D01*
X191479761Y-59626666D02*
X191003571Y-59626666D01*
X191575000Y-59912380D02*
X191241666Y-58912380D01*
X190908333Y-59912380D01*
X190575000Y-59245714D02*
X190575000Y-59912380D01*
X190575000Y-59340952D02*
X190527380Y-59293333D01*
X190432142Y-59245714D01*
X190289285Y-59245714D01*
X190194047Y-59293333D01*
X190146428Y-59388571D01*
X190146428Y-59912380D01*
X189241666Y-59912380D02*
X189241666Y-59388571D01*
X189289285Y-59293333D01*
X189384523Y-59245714D01*
X189575000Y-59245714D01*
X189670238Y-59293333D01*
X189241666Y-59864761D02*
X189336904Y-59912380D01*
X189575000Y-59912380D01*
X189670238Y-59864761D01*
X189717857Y-59769523D01*
X189717857Y-59674285D01*
X189670238Y-59579047D01*
X189575000Y-59531428D01*
X189336904Y-59531428D01*
X189241666Y-59483809D01*
X188765476Y-59245714D02*
X188765476Y-59912380D01*
X188765476Y-59340952D02*
X188717857Y-59293333D01*
X188622619Y-59245714D01*
X188479761Y-59245714D01*
X188384523Y-59293333D01*
X188336904Y-59388571D01*
X188336904Y-59912380D01*
X187432142Y-59912380D02*
X187432142Y-58912380D01*
X187432142Y-59864761D02*
X187527380Y-59912380D01*
X187717857Y-59912380D01*
X187813095Y-59864761D01*
X187860714Y-59817142D01*
X187908333Y-59721904D01*
X187908333Y-59436190D01*
X187860714Y-59340952D01*
X187813095Y-59293333D01*
X187717857Y-59245714D01*
X187527380Y-59245714D01*
X187432142Y-59293333D01*
M02*
