%TF.GenerationSoftware,KiCad,Pcbnew,(6.0.1)*%
%TF.CreationDate,2023-01-18T20:59:41+05:30*%
%TF.ProjectId,drone,64726f6e-652e-46b6-9963-61645f706362,rev?*%
%TF.SameCoordinates,Original*%
%TF.FileFunction,Copper,L1,Top*%
%TF.FilePolarity,Positive*%
%FSLAX46Y46*%
G04 Gerber Fmt 4.6, Leading zero omitted, Abs format (unit mm)*
G04 Created by KiCad (PCBNEW (6.0.1)) date 2023-01-18 20:59:41*
%MOMM*%
%LPD*%
G01*
G04 APERTURE LIST*
G04 Aperture macros list*
%AMRoundRect*
0 Rectangle with rounded corners*
0 $1 Rounding radius*
0 $2 $3 $4 $5 $6 $7 $8 $9 X,Y pos of 4 corners*
0 Add a 4 corners polygon primitive as box body*
4,1,4,$2,$3,$4,$5,$6,$7,$8,$9,$2,$3,0*
0 Add four circle primitives for the rounded corners*
1,1,$1+$1,$2,$3*
1,1,$1+$1,$4,$5*
1,1,$1+$1,$6,$7*
1,1,$1+$1,$8,$9*
0 Add four rect primitives between the rounded corners*
20,1,$1+$1,$2,$3,$4,$5,0*
20,1,$1+$1,$4,$5,$6,$7,0*
20,1,$1+$1,$6,$7,$8,$9,0*
20,1,$1+$1,$8,$9,$2,$3,0*%
G04 Aperture macros list end*
%ADD10C,0.300000*%
%TA.AperFunction,NonConductor*%
%ADD11C,0.300000*%
%TD*%
%TA.AperFunction,ComponentPad*%
%ADD12R,2.200000X2.200000*%
%TD*%
%TA.AperFunction,ComponentPad*%
%ADD13O,2.200000X2.200000*%
%TD*%
%TA.AperFunction,SMDPad,CuDef*%
%ADD14RoundRect,0.100000X0.100000X-0.130000X0.100000X0.130000X-0.100000X0.130000X-0.100000X-0.130000X0*%
%TD*%
%TA.AperFunction,SMDPad,CuDef*%
%ADD15R,1.500000X2.000000*%
%TD*%
%TA.AperFunction,SMDPad,CuDef*%
%ADD16R,3.800000X2.000000*%
%TD*%
%TA.AperFunction,SMDPad,CuDef*%
%ADD17RoundRect,0.150000X0.587500X0.150000X-0.587500X0.150000X-0.587500X-0.150000X0.587500X-0.150000X0*%
%TD*%
%TA.AperFunction,SMDPad,CuDef*%
%ADD18RoundRect,0.100000X-0.130000X-0.100000X0.130000X-0.100000X0.130000X0.100000X-0.130000X0.100000X0*%
%TD*%
%TA.AperFunction,SMDPad,CuDef*%
%ADD19RoundRect,0.150000X-0.587500X-0.150000X0.587500X-0.150000X0.587500X0.150000X-0.587500X0.150000X0*%
%TD*%
%TA.AperFunction,ComponentPad*%
%ADD20R,1.350000X1.350000*%
%TD*%
%TA.AperFunction,ComponentPad*%
%ADD21O,1.350000X1.350000*%
%TD*%
%TA.AperFunction,SMDPad,CuDef*%
%ADD22RoundRect,0.100000X0.130000X0.100000X-0.130000X0.100000X-0.130000X-0.100000X0.130000X-0.100000X0*%
%TD*%
%TA.AperFunction,SMDPad,CuDef*%
%ADD23RoundRect,0.100000X-0.100000X0.130000X-0.100000X-0.130000X0.100000X-0.130000X0.100000X0.130000X0*%
%TD*%
%TA.AperFunction,ViaPad*%
%ADD24C,0.800000*%
%TD*%
%TA.AperFunction,Conductor*%
%ADD25C,0.250000*%
%TD*%
G04 APERTURE END LIST*
D10*
D11*
X192803571Y-106007142D02*
X193946428Y-106007142D01*
X193375000Y-106578571D02*
X193375000Y-105435714D01*
D10*
D11*
X190303571Y-106007142D02*
X191446428Y-106007142D01*
D12*
%TO.P,D4,1,K*%
%TO.N,BAT+*%
X192375000Y-73525000D03*
D13*
%TO.P,D4,2,A*%
%TO.N,Net-(D4-Pad2)*%
X192375000Y-63365000D03*
%TD*%
D14*
%TO.P,R2,1*%
%TO.N,PWM{slash}M2{slash}D6*%
X153700000Y-98570000D03*
%TO.P,R2,2*%
%TO.N,GND*%
X153700000Y-97930000D03*
%TD*%
D15*
%TO.P,U1,3,VI*%
%TO.N,BAT+*%
X168475000Y-95100000D03*
D16*
%TO.P,U1,2,VO*%
%TO.N,+3V3*%
X166175000Y-88800000D03*
D15*
X166175000Y-95100000D03*
%TO.P,U1,1,GND*%
%TO.N,GND*%
X163875000Y-95100000D03*
%TD*%
D13*
%TO.P,z1,2,A*%
%TO.N,Net-(Q1-Pad3)*%
X144375000Y-63120000D03*
D12*
%TO.P,z1,1,K*%
%TO.N,BAT+*%
X144375000Y-73280000D03*
%TD*%
D17*
%TO.P,Q2,1,G*%
%TO.N,PWM{slash}M2{slash}D6*%
X151762500Y-99350000D03*
%TO.P,Q2,2,S*%
%TO.N,GND*%
X151762500Y-97450000D03*
%TO.P,Q2,3,D*%
%TO.N,Net-(D2-Pad2)*%
X149887500Y-98400000D03*
%TD*%
D18*
%TO.P,LED1,1,K*%
%TO.N,GND*%
X134660000Y-63150000D03*
%TO.P,LED1,2,A*%
%TO.N,LED{slash}D12*%
X135300000Y-63150000D03*
%TD*%
%TO.P,LED2,1,K*%
%TO.N,GND*%
X198022500Y-98550000D03*
%TO.P,LED2,2,A*%
%TO.N,LED{slash}D12*%
X198662500Y-98550000D03*
%TD*%
D19*
%TO.P,Q1,1,G*%
%TO.N,PWM{slash}M1{slash}D5*%
X149737500Y-62600000D03*
%TO.P,Q1,2,S*%
%TO.N,GND*%
X149737500Y-64500000D03*
%TO.P,Q1,3,D*%
%TO.N,Net-(Q1-Pad3)*%
X151612500Y-63550000D03*
%TD*%
D20*
%TO.P,motor-1,1,Pin_1*%
%TO.N,Net-(Q1-Pad3)*%
X134750000Y-67175000D03*
D21*
%TO.P,motor-1,2,Pin_2*%
%TO.N,BAT+*%
X134750000Y-69175000D03*
%TD*%
D20*
%TO.P,motor-4,1,Pin_1*%
%TO.N,Net-(D4-Pad2)*%
X197225000Y-67295000D03*
D21*
%TO.P,motor-4,2,Pin_2*%
%TO.N,BAT+*%
X197225000Y-69295000D03*
%TD*%
D18*
%TO.P,R12,1*%
%TO.N,GND*%
X150680000Y-79000000D03*
%TO.P,R12,2*%
%TO.N,Net-(R12-Pad2)*%
X151320000Y-79000000D03*
%TD*%
D21*
%TO.P,battery-1,2,Pin_2*%
%TO.N,BAT+*%
X192975000Y-103800000D03*
D20*
%TO.P,battery-1,1,Pin_1*%
%TO.N,GND*%
X190975000Y-103800000D03*
%TD*%
D22*
%TO.P,R9,1*%
%TO.N,BAT+*%
X167115000Y-67375000D03*
%TO.P,R9,2*%
%TO.N,ADC*%
X166475000Y-67375000D03*
%TD*%
D18*
%TO.P,R7,1*%
%TO.N,GND*%
X150630000Y-91000000D03*
%TO.P,R7,2*%
%TO.N,Net-(R7-Pad2)*%
X151270000Y-91000000D03*
%TD*%
D23*
%TO.P,R1,1*%
%TO.N,PWM{slash}M1{slash}D5*%
X147600000Y-63405000D03*
%TO.P,R1,2*%
%TO.N,GND*%
X147600000Y-64045000D03*
%TD*%
D12*
%TO.P,D1,1,K*%
%TO.N,BAT+*%
X139550000Y-73280000D03*
D13*
%TO.P,D1,2,A*%
%TO.N,Net-(Q1-Pad3)*%
X139550000Y-63120000D03*
%TD*%
D19*
%TO.P,Q3,1,G*%
%TO.N,PWM{slash}M3{slash}D8*%
X183312500Y-97400000D03*
%TO.P,Q3,2,S*%
%TO.N,GND*%
X183312500Y-99300000D03*
%TO.P,Q3,3,D*%
%TO.N,Net-(D3-Pad2)*%
X185187500Y-98350000D03*
%TD*%
D23*
%TO.P,R3,1*%
%TO.N,PWM{slash}M3{slash}D8*%
X181400000Y-98180000D03*
%TO.P,R3,2*%
%TO.N,GND*%
X181400000Y-98820000D03*
%TD*%
D12*
%TO.P,D3,1,K*%
%TO.N,BAT+*%
X193950000Y-88520000D03*
D13*
%TO.P,D3,2,A*%
%TO.N,Net-(D3-Pad2)*%
X193950000Y-98680000D03*
%TD*%
D12*
%TO.P,D2,1,K*%
%TO.N,BAT+*%
X141025000Y-88795000D03*
D13*
%TO.P,D2,2,A*%
%TO.N,Net-(D2-Pad2)*%
X141025000Y-98955000D03*
%TD*%
D14*
%TO.P,R4,1*%
%TO.N,PWM{slash}M4{slash}D7*%
X184250000Y-63965000D03*
%TO.P,R4,2*%
%TO.N,GND*%
X184250000Y-63325000D03*
%TD*%
D13*
%TO.P,z4,2,A*%
%TO.N,Net-(D4-Pad2)*%
X188175000Y-63390000D03*
D12*
%TO.P,z4,1,K*%
%TO.N,BAT+*%
X188175000Y-73550000D03*
%TD*%
D18*
%TO.P,LED4,2,A*%
%TO.N,LED{slash}D12*%
X197420000Y-63570000D03*
%TO.P,LED4,1,K*%
%TO.N,GND*%
X196780000Y-63570000D03*
%TD*%
D20*
%TO.P,rightIfAntennaOnTop1,1,Pin_1*%
%TO.N,+3V3*%
X177400000Y-95200000D03*
D21*
%TO.P,rightIfAntennaOnTop1,2,Pin_2*%
%TO.N,GND*%
X177400000Y-93200000D03*
%TO.P,rightIfAntennaOnTop1,3,Pin_3*%
%TO.N,unconnected-(rightIfAntennaOnTop1-Pad3)*%
X177400000Y-91200000D03*
%TO.P,rightIfAntennaOnTop1,4,Pin_4*%
%TO.N,unconnected-(rightIfAntennaOnTop1-Pad4)*%
X177400000Y-89200000D03*
%TO.P,rightIfAntennaOnTop1,5,Pin_5*%
%TO.N,PWM{slash}M3{slash}D8*%
X177400000Y-87200000D03*
%TO.P,rightIfAntennaOnTop1,6,Pin_6*%
%TO.N,PWM{slash}M4{slash}D7*%
X177400000Y-85200000D03*
%TO.P,rightIfAntennaOnTop1,7,Pin_7*%
%TO.N,PWM{slash}M2{slash}D6*%
X177400000Y-83200000D03*
%TO.P,rightIfAntennaOnTop1,8,Pin_8*%
%TO.N,PWM{slash}M1{slash}D5*%
X177400000Y-81200000D03*
%TO.P,rightIfAntennaOnTop1,9,Pin_9*%
%TO.N,GND*%
X177400000Y-79200000D03*
%TO.P,rightIfAntennaOnTop1,10,Pin_10*%
%TO.N,+3V3*%
X177400000Y-77200000D03*
%TO.P,rightIfAntennaOnTop1,11,Pin_11*%
%TO.N,unconnected-(rightIfAntennaOnTop1-Pad11)*%
X177400000Y-75200000D03*
%TO.P,rightIfAntennaOnTop1,12,Pin_12*%
%TO.N,Net-(R5-Pad1)*%
X177400000Y-73200000D03*
%TO.P,rightIfAntennaOnTop1,13,Pin_13*%
%TO.N,SDA*%
X177400000Y-71200000D03*
%TO.P,rightIfAntennaOnTop1,14,Pin_14*%
%TO.N,SCL*%
X177400000Y-69200000D03*
%TO.P,rightIfAntennaOnTop1,15,Pin_15*%
%TO.N,unconnected-(rightIfAntennaOnTop1-Pad15)*%
X177400000Y-67200000D03*
%TD*%
D20*
%TO.P,MPU1,1,Pin_1*%
%TO.N,+3V3*%
X159450000Y-56875000D03*
D21*
%TO.P,MPU1,2,Pin_2*%
%TO.N,GND*%
X161450000Y-56875000D03*
%TO.P,MPU1,3,Pin_3*%
%TO.N,SCL*%
X163450000Y-56875000D03*
%TO.P,MPU1,4,Pin_4*%
%TO.N,SDA*%
X165450000Y-56875000D03*
%TO.P,MPU1,5,Pin_5*%
%TO.N,unconnected-(MPU1-Pad5)*%
X167450000Y-56875000D03*
%TO.P,MPU1,6,Pin_6*%
%TO.N,unconnected-(MPU1-Pad6)*%
X169450000Y-56875000D03*
%TO.P,MPU1,7,Pin_7*%
%TO.N,unconnected-(MPU1-Pad7)*%
X171450000Y-56875000D03*
%TO.P,MPU1,8,Pin_8*%
%TO.N,INT*%
X173450000Y-56875000D03*
%TD*%
D18*
%TO.P,R8,1*%
%TO.N,GND*%
X150605000Y-89000000D03*
%TO.P,R8,2*%
%TO.N,Net-(R8-Pad2)*%
X151245000Y-89000000D03*
%TD*%
D12*
%TO.P,z3,1,K*%
%TO.N,BAT+*%
X189075000Y-88495000D03*
D13*
%TO.P,z3,2,A*%
%TO.N,Net-(D3-Pad2)*%
X189075000Y-98655000D03*
%TD*%
D20*
%TO.P,motor-2,1,Pin_1*%
%TO.N,Net-(D2-Pad2)*%
X136275000Y-95100000D03*
D21*
%TO.P,motor-2,2,Pin_2*%
%TO.N,BAT+*%
X136275000Y-93100000D03*
%TD*%
D18*
%TO.P,R10,1*%
%TO.N,ADC*%
X166580000Y-69400000D03*
%TO.P,R10,2*%
%TO.N,GND*%
X167220000Y-69400000D03*
%TD*%
%TO.P,C1,1*%
%TO.N,BAT+*%
X174030000Y-95750000D03*
%TO.P,C1,2*%
%TO.N,GND*%
X174670000Y-95750000D03*
%TD*%
D17*
%TO.P,Q4,1,G*%
%TO.N,PWM{slash}M4{slash}D7*%
X182112500Y-64450000D03*
%TO.P,Q4,2,S*%
%TO.N,GND*%
X182112500Y-62550000D03*
%TO.P,Q4,3,D*%
%TO.N,Net-(D4-Pad2)*%
X180237500Y-63500000D03*
%TD*%
D20*
%TO.P,motor-3,1,Pin_1*%
%TO.N,Net-(D3-Pad2)*%
X198575000Y-94600000D03*
D21*
%TO.P,motor-3,2,Pin_2*%
%TO.N,BAT+*%
X198575000Y-92600000D03*
%TD*%
D18*
%TO.P,LED5,1,K*%
%TO.N,GND*%
X148955000Y-73025000D03*
%TO.P,LED5,2,A*%
%TO.N,LED{slash}D13*%
X149595000Y-73025000D03*
%TD*%
%TO.P,R5,1*%
%TO.N,Net-(R5-Pad1)*%
X179830000Y-73300000D03*
%TO.P,R5,2*%
%TO.N,+3V3*%
X180470000Y-73300000D03*
%TD*%
D12*
%TO.P,z2,1,K*%
%TO.N,BAT+*%
X146050000Y-88715000D03*
D13*
%TO.P,z2,2,A*%
%TO.N,Net-(D2-Pad2)*%
X146050000Y-98875000D03*
%TD*%
D20*
%TO.P,leftIfAntennaOnTop1,1,Pin_1*%
%TO.N,ADC*%
X154425000Y-67000000D03*
D21*
%TO.P,leftIfAntennaOnTop1,2,Pin_2*%
%TO.N,unconnected-(leftIfAntennaOnTop1-Pad2)*%
X154425000Y-69000000D03*
%TO.P,leftIfAntennaOnTop1,3,Pin_3*%
%TO.N,unconnected-(leftIfAntennaOnTop1-Pad3)*%
X154425000Y-71000000D03*
%TO.P,leftIfAntennaOnTop1,4,Pin_4*%
%TO.N,LED{slash}D13*%
X154425000Y-73000000D03*
%TO.P,leftIfAntennaOnTop1,5,Pin_5*%
%TO.N,LED{slash}D12*%
X154425000Y-75000000D03*
%TO.P,leftIfAntennaOnTop1,6,Pin_6*%
%TO.N,unconnected-(leftIfAntennaOnTop1-Pad6)*%
X154425000Y-77000000D03*
%TO.P,leftIfAntennaOnTop1,7,Pin_7*%
%TO.N,Net-(R12-Pad2)*%
X154425000Y-79000000D03*
%TO.P,leftIfAntennaOnTop1,8,Pin_8*%
%TO.N,INT*%
X154425000Y-81000000D03*
%TO.P,leftIfAntennaOnTop1,9,Pin_9*%
%TO.N,unconnected-(leftIfAntennaOnTop1-Pad9)*%
X154425000Y-83000000D03*
%TO.P,leftIfAntennaOnTop1,10,Pin_10*%
%TO.N,GND*%
X154425000Y-85000000D03*
%TO.P,leftIfAntennaOnTop1,11,Pin_11*%
%TO.N,+3V3*%
X154425000Y-87000000D03*
%TO.P,leftIfAntennaOnTop1,12,Pin_12*%
%TO.N,Net-(R8-Pad2)*%
X154425000Y-89000000D03*
%TO.P,leftIfAntennaOnTop1,13,Pin_13*%
%TO.N,Net-(R7-Pad2)*%
X154425000Y-91000000D03*
%TO.P,leftIfAntennaOnTop1,14,Pin_14*%
%TO.N,GND*%
X154425000Y-93000000D03*
%TO.P,leftIfAntennaOnTop1,15,Pin_15*%
%TO.N,+3V3*%
X154425000Y-95000000D03*
%TD*%
D18*
%TO.P,LED3,1,K*%
%TO.N,GND*%
X136180000Y-98750000D03*
%TO.P,LED3,2,A*%
%TO.N,LED{slash}D12*%
X136820000Y-98750000D03*
%TD*%
%TO.P,C2,1*%
%TO.N,+3V3*%
X159155000Y-95475000D03*
%TO.P,C2,2*%
%TO.N,GND*%
X159795000Y-95475000D03*
%TD*%
D24*
%TO.N,GND*%
X151500000Y-92825000D03*
%TO.N,LED{slash}D12*%
X149550000Y-102375000D03*
X146400000Y-83325000D03*
X149275000Y-60100000D03*
X151525000Y-74700000D03*
X195125000Y-75775000D03*
X159625000Y-74350000D03*
X195750000Y-64700000D03*
X195225000Y-72725000D03*
X197300000Y-86800000D03*
X197125000Y-97250000D03*
%TO.N,GND*%
X147675000Y-72975000D03*
X196075000Y-62600000D03*
X197025000Y-99575000D03*
X135475000Y-99500000D03*
X150950000Y-83225000D03*
X134425000Y-61875000D03*
X183925000Y-62150000D03*
%TO.N,BAT+*%
X183150000Y-91350000D03*
X181650000Y-93075000D03*
%TO.N,GND*%
X181525000Y-99925000D03*
%TO.N,BAT+*%
X163225000Y-103725000D03*
X165225000Y-102325000D03*
%TO.N,GND*%
X153275000Y-96975000D03*
%TO.N,PWM{slash}M2{slash}D6*%
X157800000Y-98625000D03*
X173475000Y-82525000D03*
%TO.N,PWM{slash}M1{slash}D5*%
X152775000Y-59975000D03*
X175300000Y-80775000D03*
%TO.N,GND*%
X147825000Y-65400000D03*
%TO.N,INT*%
X163225000Y-68100000D03*
X169750000Y-61650000D03*
%TO.N,SDA*%
X168675000Y-59825000D03*
X166350000Y-62225000D03*
%TO.N,GND*%
X161525000Y-59025000D03*
X157200000Y-85025000D03*
%TO.N,BAT+*%
X171275000Y-93975000D03*
X170525000Y-82675000D03*
%TO.N,+3V3*%
X166425000Y-98775000D03*
X176050000Y-98825000D03*
%TO.N,GND*%
X174950000Y-93925000D03*
X162050000Y-96800000D03*
X161975000Y-95700000D03*
X163225000Y-96875000D03*
%TD*%
D25*
%TO.N,PWM{slash}M2{slash}D6*%
X153000000Y-100725000D02*
X153700000Y-100025000D01*
X153700000Y-100025000D02*
X153700000Y-98570000D01*
X151762500Y-99487500D02*
X153000000Y-100725000D01*
X151762500Y-99350000D02*
X151762500Y-99487500D01*
%TO.N,GND*%
X150605000Y-90975000D02*
X150630000Y-91000000D01*
X150605000Y-89000000D02*
X150605000Y-90975000D01*
X150630000Y-91955000D02*
X151500000Y-92825000D01*
X150630000Y-91000000D02*
X150630000Y-91955000D01*
X151675000Y-93000000D02*
X151500000Y-92825000D01*
X154425000Y-93000000D02*
X151675000Y-93000000D01*
%TO.N,+3V3*%
X164375000Y-87000000D02*
X166175000Y-88800000D01*
X154425000Y-87000000D02*
X164375000Y-87000000D01*
%TO.N,LED{slash}D12*%
X149550000Y-102375000D02*
X140445000Y-102375000D01*
X140445000Y-102375000D02*
X136820000Y-98750000D01*
X146400000Y-79825000D02*
X146400000Y-83325000D01*
X151525000Y-74700000D02*
X146400000Y-79825000D01*
X138350000Y-60100000D02*
X135300000Y-63150000D01*
X151825000Y-75000000D02*
X151525000Y-74700000D01*
X149275000Y-60100000D02*
X138350000Y-60100000D01*
X154425000Y-75000000D02*
X151825000Y-75000000D01*
X195225000Y-75675000D02*
X195225000Y-72725000D01*
X195125000Y-75775000D02*
X195225000Y-75675000D01*
X158975000Y-75000000D02*
X159625000Y-74350000D01*
X154425000Y-75000000D02*
X158975000Y-75000000D01*
X196480361Y-64700000D02*
X197420000Y-63760361D01*
X195750000Y-64700000D02*
X196480361Y-64700000D01*
X197300000Y-74800000D02*
X195225000Y-72725000D01*
X197300000Y-86800000D02*
X197300000Y-74800000D01*
X197552861Y-97250000D02*
X197125000Y-97250000D01*
X198662500Y-98359639D02*
X197552861Y-97250000D01*
X198662500Y-98550000D02*
X198662500Y-98359639D01*
X197420000Y-63760361D02*
X197420000Y-63570000D01*
%TO.N,GND*%
X147725000Y-73025000D02*
X147675000Y-72975000D01*
X148955000Y-73025000D02*
X147725000Y-73025000D01*
X150680000Y-82955000D02*
X150950000Y-83225000D01*
X150680000Y-79000000D02*
X150680000Y-82955000D01*
X152650000Y-83225000D02*
X154425000Y-85000000D01*
X150950000Y-83225000D02*
X152650000Y-83225000D01*
X198022500Y-98577500D02*
X197025000Y-99575000D01*
X198022500Y-98550000D02*
X198022500Y-98577500D01*
X136180000Y-98795000D02*
X135475000Y-99500000D01*
X136180000Y-98750000D02*
X136180000Y-98795000D01*
X134425000Y-61875000D02*
X134425000Y-62915000D01*
X134425000Y-62915000D02*
X134660000Y-63150000D01*
X196075000Y-62865000D02*
X196780000Y-63570000D01*
X196075000Y-62600000D02*
X196075000Y-62865000D01*
%TO.N,BAT+*%
X188200000Y-73525000D02*
X188175000Y-73550000D01*
X192375000Y-73525000D02*
X188200000Y-73525000D01*
X192995000Y-73525000D02*
X192375000Y-73525000D01*
X197225000Y-69295000D02*
X192995000Y-73525000D01*
%TO.N,Net-(D4-Pad2)*%
X196305000Y-67295000D02*
X197225000Y-67295000D01*
X192375000Y-63365000D02*
X196305000Y-67295000D01*
X188175000Y-63390000D02*
X192350000Y-63390000D01*
X192350000Y-63390000D02*
X192375000Y-63365000D01*
X184860000Y-60075000D02*
X188175000Y-63390000D01*
X180900000Y-60075000D02*
X184860000Y-60075000D01*
X180900000Y-62837500D02*
X180900000Y-60075000D01*
X180237500Y-63500000D02*
X180900000Y-62837500D01*
%TO.N,GND*%
X184250000Y-62475000D02*
X183925000Y-62150000D01*
X184250000Y-63325000D02*
X184250000Y-62475000D01*
X183525000Y-62550000D02*
X183925000Y-62150000D01*
X182112500Y-62550000D02*
X183525000Y-62550000D01*
%TO.N,PWM{slash}M4{slash}D7*%
X182112500Y-64450000D02*
X183765000Y-64450000D01*
X183765000Y-64450000D02*
X184250000Y-63965000D01*
%TO.N,BAT+*%
X190275000Y-84845000D02*
X190275000Y-84225000D01*
X193950000Y-88520000D02*
X190275000Y-84845000D01*
X190275000Y-84225000D02*
X192375000Y-82125000D01*
X183150000Y-91350000D02*
X190275000Y-84225000D01*
X192375000Y-82125000D02*
X192375000Y-73525000D01*
X188175000Y-86325000D02*
X188175000Y-73550000D01*
X183150000Y-91350000D02*
X188175000Y-86325000D01*
X186005000Y-88495000D02*
X189075000Y-88495000D01*
X178750000Y-95975000D02*
X181650000Y-93075000D01*
X173700000Y-100325000D02*
X178750000Y-100325000D01*
X168475000Y-95100000D02*
X173700000Y-100325000D01*
X178750000Y-100325000D02*
X178750000Y-95975000D01*
X183150000Y-91350000D02*
X186005000Y-88495000D01*
%TO.N,+3V3*%
X180470000Y-73300000D02*
X180470000Y-74130000D01*
X180470000Y-74130000D02*
X177400000Y-77200000D01*
%TO.N,Net-(R5-Pad1)*%
X179730000Y-73200000D02*
X179830000Y-73300000D01*
X177400000Y-73200000D02*
X179730000Y-73200000D01*
%TO.N,PWM{slash}M4{slash}D7*%
X181649520Y-64912980D02*
X182112500Y-64450000D01*
X181649520Y-80950480D02*
X181649520Y-64912980D01*
X177400000Y-85200000D02*
X181649520Y-80950480D01*
%TO.N,PWM{slash}M3{slash}D8*%
X183312500Y-93112500D02*
X183312500Y-97400000D01*
X177400000Y-87200000D02*
X183312500Y-93112500D01*
%TO.N,GND*%
X182150000Y-99300000D02*
X181525000Y-99925000D01*
X183312500Y-99300000D02*
X182150000Y-99300000D01*
X181400000Y-99800000D02*
X181525000Y-99925000D01*
X181400000Y-98820000D02*
X181400000Y-99800000D01*
%TO.N,BAT+*%
X193925000Y-88495000D02*
X193950000Y-88520000D01*
X189075000Y-88495000D02*
X193925000Y-88495000D01*
X194495000Y-88520000D02*
X193950000Y-88520000D01*
X198575000Y-92600000D02*
X194495000Y-88520000D01*
%TO.N,Net-(D3-Pad2)*%
X198030000Y-94600000D02*
X198575000Y-94600000D01*
X193950000Y-98680000D02*
X198030000Y-94600000D01*
X189100000Y-98680000D02*
X189075000Y-98655000D01*
X193950000Y-98680000D02*
X189100000Y-98680000D01*
X185492500Y-98655000D02*
X189075000Y-98655000D01*
X185187500Y-98350000D02*
X185492500Y-98655000D01*
%TO.N,PWM{slash}M3{slash}D8*%
X182180000Y-97400000D02*
X181400000Y-98180000D01*
X183312500Y-97400000D02*
X182180000Y-97400000D01*
%TO.N,BAT+*%
X146050000Y-85800000D02*
X141450000Y-81200000D01*
X146050000Y-88715000D02*
X146050000Y-85800000D01*
X141450000Y-81200000D02*
X144375000Y-78275000D01*
X139550000Y-83100000D02*
X141450000Y-81200000D01*
X134920000Y-88795000D02*
X134387500Y-88262500D01*
X141025000Y-88795000D02*
X134920000Y-88795000D01*
X134387500Y-88262500D02*
X139550000Y-83100000D01*
X133725000Y-88925000D02*
X134387500Y-88262500D01*
X144375000Y-78275000D02*
X144375000Y-73280000D01*
X139550000Y-83100000D02*
X139550000Y-73280000D01*
X133725000Y-100075000D02*
X133725000Y-88925000D01*
X134375000Y-100725000D02*
X133725000Y-100075000D01*
X137324639Y-100725000D02*
X134375000Y-100725000D01*
X163225000Y-103725000D02*
X140324639Y-103725000D01*
X140324639Y-103725000D02*
X137324639Y-100725000D01*
X168475000Y-99075000D02*
X165225000Y-102325000D01*
X168475000Y-95100000D02*
X168475000Y-99075000D01*
X141025000Y-88795000D02*
X145970000Y-88795000D01*
X145970000Y-88795000D02*
X146050000Y-88715000D01*
X140580000Y-88795000D02*
X141025000Y-88795000D01*
X136275000Y-93100000D02*
X140580000Y-88795000D01*
%TO.N,Net-(D2-Pad2)*%
X137170000Y-95100000D02*
X141025000Y-98955000D01*
X136275000Y-95100000D02*
X137170000Y-95100000D01*
X145970000Y-98955000D02*
X146050000Y-98875000D01*
X141025000Y-98955000D02*
X145970000Y-98955000D01*
X149412500Y-98875000D02*
X149887500Y-98400000D01*
X146050000Y-98875000D02*
X149412500Y-98875000D01*
%TO.N,GND*%
X153275000Y-97505000D02*
X153700000Y-97930000D01*
X153275000Y-96975000D02*
X153275000Y-97505000D01*
X152800000Y-97450000D02*
X153275000Y-96975000D01*
X151762500Y-97450000D02*
X152800000Y-97450000D01*
%TO.N,PWM{slash}M2{slash}D6*%
X153755000Y-98625000D02*
X153700000Y-98570000D01*
X157800000Y-98625000D02*
X153755000Y-98625000D01*
X174150000Y-83200000D02*
X173475000Y-82525000D01*
X177400000Y-83200000D02*
X174150000Y-83200000D01*
%TO.N,PWM{slash}M1{slash}D5*%
X152362500Y-59975000D02*
X149737500Y-62600000D01*
X152775000Y-59975000D02*
X152362500Y-59975000D01*
X175725000Y-81200000D02*
X175300000Y-80775000D01*
X177400000Y-81200000D02*
X175725000Y-81200000D01*
%TO.N,BAT+*%
X139550000Y-73280000D02*
X144375000Y-73280000D01*
X138855000Y-73280000D02*
X139550000Y-73280000D01*
X134750000Y-69175000D02*
X138855000Y-73280000D01*
%TO.N,Net-(Q1-Pad3)*%
X135495000Y-67175000D02*
X139550000Y-63120000D01*
X134750000Y-67175000D02*
X135495000Y-67175000D01*
X139550000Y-63120000D02*
X144375000Y-63120000D01*
X151900000Y-63837500D02*
X151612500Y-63550000D01*
X147379511Y-66124511D02*
X151899511Y-66124511D01*
X151899511Y-66124511D02*
X151900000Y-66125000D01*
X144375000Y-63120000D02*
X147379511Y-66124511D01*
X151900000Y-66125000D02*
X151900000Y-63837500D01*
%TO.N,PWM{slash}M1{slash}D5*%
X148932500Y-63405000D02*
X149737500Y-62600000D01*
X147600000Y-63405000D02*
X148932500Y-63405000D01*
%TO.N,GND*%
X148725000Y-64500000D02*
X147825000Y-65400000D01*
X149737500Y-64500000D02*
X148725000Y-64500000D01*
X147600000Y-65175000D02*
X147825000Y-65400000D01*
X147600000Y-64045000D02*
X147600000Y-65175000D01*
%TO.N,Net-(R7-Pad2)*%
X151270000Y-91000000D02*
X154425000Y-91000000D01*
%TO.N,Net-(R8-Pad2)*%
X151245000Y-89000000D02*
X154425000Y-89000000D01*
%TO.N,Net-(R12-Pad2)*%
X151320000Y-79000000D02*
X154425000Y-79000000D01*
%TO.N,LED{slash}D13*%
X149620000Y-73000000D02*
X154425000Y-73000000D01*
X149595000Y-73025000D02*
X149620000Y-73000000D01*
%TO.N,INT*%
X163225000Y-68100000D02*
X163225000Y-72200000D01*
X173450000Y-57950000D02*
X169750000Y-61650000D01*
X163225000Y-72200000D02*
X154425000Y-81000000D01*
X173450000Y-56875000D02*
X173450000Y-57950000D01*
%TO.N,SDA*%
X168675000Y-59825000D02*
X168400000Y-59825000D01*
X168400000Y-59825000D02*
X165450000Y-56875000D01*
X177400000Y-71200000D02*
X175325000Y-71200000D01*
X175325000Y-71200000D02*
X166350000Y-62225000D01*
%TO.N,SCL*%
X175775000Y-69200000D02*
X163450000Y-56875000D01*
X177400000Y-69200000D02*
X175775000Y-69200000D01*
%TO.N,+3V3*%
X171249511Y-83725489D02*
X166175000Y-88800000D01*
X171249511Y-69774125D02*
X171249511Y-83725489D01*
X159450000Y-56875000D02*
X159450000Y-57974614D01*
X159450000Y-57974614D02*
X171249511Y-69774125D01*
%TO.N,GND*%
X161450000Y-58950000D02*
X161525000Y-59025000D01*
X161450000Y-56875000D02*
X161450000Y-58950000D01*
X167220000Y-75005000D02*
X157200000Y-85025000D01*
X167220000Y-69400000D02*
X167220000Y-75005000D01*
X157175000Y-85000000D02*
X157200000Y-85025000D01*
X154425000Y-85000000D02*
X157175000Y-85000000D01*
%TO.N,ADC*%
X164180000Y-67000000D02*
X154425000Y-67000000D01*
X166580000Y-69400000D02*
X164180000Y-67000000D01*
X166100000Y-67000000D02*
X166475000Y-67375000D01*
X154425000Y-67000000D02*
X166100000Y-67000000D01*
%TO.N,BAT+*%
X170150000Y-95100000D02*
X168475000Y-95100000D01*
X171275000Y-93975000D02*
X170150000Y-95100000D01*
X170525000Y-70785000D02*
X170525000Y-82675000D01*
X167115000Y-67375000D02*
X170525000Y-70785000D01*
%TO.N,GND*%
X161750000Y-95475000D02*
X161975000Y-95700000D01*
X159795000Y-95475000D02*
X161750000Y-95475000D01*
%TO.N,+3V3*%
X165639639Y-88800000D02*
X166175000Y-88800000D01*
X159155000Y-95284639D02*
X165639639Y-88800000D01*
X159155000Y-95475000D02*
X159155000Y-95284639D01*
X154425000Y-95000000D02*
X160625000Y-88800000D01*
X160625000Y-88800000D02*
X166175000Y-88800000D01*
X166425000Y-98775000D02*
X166175000Y-98525000D01*
X177400000Y-97475000D02*
X176050000Y-98825000D01*
X166175000Y-98525000D02*
X166175000Y-95100000D01*
X177400000Y-95200000D02*
X177400000Y-97475000D01*
X166175000Y-88425000D02*
X177400000Y-77200000D01*
X166175000Y-88800000D02*
X166175000Y-88425000D01*
%TO.N,GND*%
X174950000Y-93925000D02*
X176675000Y-93925000D01*
X176675000Y-93925000D02*
X177400000Y-93200000D01*
X174670000Y-94205000D02*
X174950000Y-93925000D01*
X174670000Y-95750000D02*
X174670000Y-94205000D01*
%TO.N,BAT+*%
X173380000Y-95100000D02*
X168475000Y-95100000D01*
X174030000Y-95750000D02*
X173380000Y-95100000D01*
%TO.N,GND*%
X163225000Y-95750000D02*
X163875000Y-95100000D01*
X163225000Y-96875000D02*
X163225000Y-95750000D01*
X163275000Y-95700000D02*
X163875000Y-95100000D01*
X161975000Y-95700000D02*
X163275000Y-95700000D01*
X163150000Y-96800000D02*
X163225000Y-96875000D01*
X162050000Y-96800000D02*
X163150000Y-96800000D01*
X161975000Y-95700000D02*
X161975000Y-96725000D01*
X161975000Y-96725000D02*
X162050000Y-96800000D01*
X163875000Y-102575000D02*
X163875000Y-95100000D01*
X165100000Y-103800000D02*
X163875000Y-102575000D01*
X190975000Y-103800000D02*
X165100000Y-103800000D01*
%TO.N,+3V3*%
X166175000Y-95100000D02*
X166175000Y-88800000D01*
%TO.N,BAT+*%
X191975489Y-102800489D02*
X192975000Y-103800000D01*
X168475000Y-95100000D02*
X176175489Y-102800489D01*
X176175489Y-102800489D02*
X191975489Y-102800489D01*
%TD*%
%TA.AperFunction,Conductor*%
%TO.N,+3V3*%
G36*
X166371121Y-88566002D02*
G01*
X166417614Y-88619658D01*
X166429000Y-88672000D01*
X166429000Y-90289884D01*
X166433475Y-90305123D01*
X166434865Y-90306328D01*
X166442548Y-90307999D01*
X168119669Y-90307999D01*
X168126490Y-90307629D01*
X168177352Y-90302105D01*
X168192603Y-90298479D01*
X168246572Y-90278247D01*
X168317379Y-90273064D01*
X168379748Y-90306985D01*
X168413878Y-90369240D01*
X168407790Y-90443024D01*
X167175925Y-93522687D01*
X167132054Y-93578507D01*
X167064969Y-93601748D01*
X167029787Y-93598474D01*
X167027350Y-93597894D01*
X166976486Y-93592369D01*
X166969672Y-93592000D01*
X166447115Y-93592000D01*
X166431876Y-93596475D01*
X166430671Y-93597865D01*
X166429000Y-93605548D01*
X166429000Y-95228000D01*
X166408998Y-95296121D01*
X166355342Y-95342614D01*
X166303000Y-95354000D01*
X166047000Y-95354000D01*
X165978879Y-95333998D01*
X165932386Y-95280342D01*
X165921000Y-95228000D01*
X165921000Y-93610116D01*
X165916525Y-93594877D01*
X165915135Y-93593672D01*
X165907452Y-93592001D01*
X165380331Y-93592001D01*
X165373510Y-93592371D01*
X165322648Y-93597895D01*
X165302084Y-93602784D01*
X165231184Y-93599081D01*
X165173541Y-93557634D01*
X165155824Y-93526676D01*
X163933487Y-90446387D01*
X163924620Y-90401997D01*
X163924505Y-90395049D01*
X163943377Y-90326607D01*
X163996256Y-90279232D01*
X164066353Y-90267967D01*
X164094718Y-90274982D01*
X164157394Y-90298478D01*
X164172649Y-90302105D01*
X164223514Y-90307631D01*
X164230328Y-90308000D01*
X165902885Y-90308000D01*
X165918124Y-90303525D01*
X165919329Y-90302135D01*
X165921000Y-90294452D01*
X165921000Y-88672000D01*
X165941002Y-88603879D01*
X165994658Y-88557386D01*
X166047000Y-88546000D01*
X166303000Y-88546000D01*
X166371121Y-88566002D01*
G37*
%TD.AperFunction*%
%TD*%
%TA.AperFunction,Conductor*%
%TO.N,GND*%
G36*
X162555861Y-94605098D02*
G01*
X162603967Y-94657313D01*
X162617000Y-94713121D01*
X162617000Y-94827885D01*
X162621475Y-94843124D01*
X162622865Y-94844329D01*
X162630548Y-94846000D01*
X164003000Y-94846000D01*
X164071121Y-94866002D01*
X164117614Y-94919658D01*
X164129000Y-94972000D01*
X164129000Y-96579530D01*
X164108998Y-96647651D01*
X164092940Y-96667773D01*
X163393101Y-97381070D01*
X163331115Y-97415687D01*
X163288855Y-97418012D01*
X161703343Y-97236811D01*
X161637935Y-97209204D01*
X161597835Y-97150616D01*
X161592022Y-97121290D01*
X161555589Y-96647651D01*
X161516898Y-96144669D01*
X162617001Y-96144669D01*
X162617371Y-96151490D01*
X162622895Y-96202352D01*
X162626521Y-96217604D01*
X162671676Y-96338054D01*
X162680214Y-96353649D01*
X162756715Y-96455724D01*
X162769276Y-96468285D01*
X162871351Y-96544786D01*
X162886946Y-96553324D01*
X163007394Y-96598478D01*
X163022649Y-96602105D01*
X163073514Y-96607631D01*
X163080328Y-96608000D01*
X163602885Y-96607999D01*
X163618124Y-96603524D01*
X163619329Y-96602134D01*
X163621000Y-96594451D01*
X163621000Y-95372115D01*
X163616525Y-95356876D01*
X163615135Y-95355671D01*
X163607452Y-95354000D01*
X162635116Y-95354000D01*
X162619877Y-95358475D01*
X162618672Y-95359865D01*
X162617001Y-95367548D01*
X162617001Y-96144669D01*
X161516898Y-96144669D01*
X161455571Y-95347424D01*
X161470290Y-95277970D01*
X161509883Y-95233886D01*
X162045714Y-94866002D01*
X162419684Y-94609247D01*
X162487163Y-94587179D01*
X162555861Y-94605098D01*
G37*
%TD.AperFunction*%
%TD*%
M02*
