%TF.GenerationSoftware,KiCad,Pcbnew,(6.0.1)*%
%TF.CreationDate,2023-01-18T20:59:41+05:30*%
%TF.ProjectId,drone,64726f6e-652e-46b6-9963-61645f706362,rev?*%
%TF.SameCoordinates,Original*%
%TF.FileFunction,Legend,Top*%
%TF.FilePolarity,Positive*%
%FSLAX46Y46*%
G04 Gerber Fmt 4.6, Leading zero omitted, Abs format (unit mm)*
G04 Created by KiCad (PCBNEW (6.0.1)) date 2023-01-18 20:59:41*
%MOMM*%
%LPD*%
G01*
G04 APERTURE LIST*
%ADD10C,0.150000*%
%ADD11C,0.120000*%
%ADD12C,0.100000*%
G04 APERTURE END LIST*
D10*
%TO.C,D4*%
X190357380Y-69183095D02*
X189357380Y-69183095D01*
X189357380Y-68945000D01*
X189405000Y-68802142D01*
X189500238Y-68706904D01*
X189595476Y-68659285D01*
X189785952Y-68611666D01*
X189928809Y-68611666D01*
X190119285Y-68659285D01*
X190214523Y-68706904D01*
X190309761Y-68802142D01*
X190357380Y-68945000D01*
X190357380Y-69183095D01*
X189690714Y-67754523D02*
X190357380Y-67754523D01*
X189309761Y-67992619D02*
X190024047Y-68230714D01*
X190024047Y-67611666D01*
X190727380Y-73786904D02*
X189727380Y-73786904D01*
X190727380Y-73215476D02*
X190155952Y-73644047D01*
X189727380Y-73215476D02*
X190298809Y-73786904D01*
%TO.C,R2*%
X153102380Y-98416666D02*
X152626190Y-98750000D01*
X153102380Y-98988095D02*
X152102380Y-98988095D01*
X152102380Y-98607142D01*
X152150000Y-98511904D01*
X152197619Y-98464285D01*
X152292857Y-98416666D01*
X152435714Y-98416666D01*
X152530952Y-98464285D01*
X152578571Y-98511904D01*
X152626190Y-98607142D01*
X152626190Y-98988095D01*
X152197619Y-98035714D02*
X152150000Y-97988095D01*
X152102380Y-97892857D01*
X152102380Y-97654761D01*
X152150000Y-97559523D01*
X152197619Y-97511904D01*
X152292857Y-97464285D01*
X152388095Y-97464285D01*
X152530952Y-97511904D01*
X153102380Y-98083333D01*
X153102380Y-97464285D01*
%TO.C,U1*%
X161127380Y-92711904D02*
X161936904Y-92711904D01*
X162032142Y-92664285D01*
X162079761Y-92616666D01*
X162127380Y-92521428D01*
X162127380Y-92330952D01*
X162079761Y-92235714D01*
X162032142Y-92188095D01*
X161936904Y-92140476D01*
X161127380Y-92140476D01*
X162127380Y-91140476D02*
X162127380Y-91711904D01*
X162127380Y-91426190D02*
X161127380Y-91426190D01*
X161270238Y-91521428D01*
X161365476Y-91616666D01*
X161413095Y-91711904D01*
%TO.C,z1*%
X141690714Y-68938095D02*
X141690714Y-68414285D01*
X142357380Y-68938095D01*
X142357380Y-68414285D01*
X142357380Y-67509523D02*
X142357380Y-68080952D01*
X142357380Y-67795238D02*
X141357380Y-67795238D01*
X141500238Y-67890476D01*
X141595476Y-67985714D01*
X141643095Y-68080952D01*
X142727380Y-73541904D02*
X141727380Y-73541904D01*
X142727380Y-72970476D02*
X142155952Y-73399047D01*
X141727380Y-72970476D02*
X142298809Y-73541904D01*
%TO.C,Q2*%
X150729761Y-101347619D02*
X150634523Y-101300000D01*
X150539285Y-101204761D01*
X150396428Y-101061904D01*
X150301190Y-101014285D01*
X150205952Y-101014285D01*
X150253571Y-101252380D02*
X150158333Y-101204761D01*
X150063095Y-101109523D01*
X150015476Y-100919047D01*
X150015476Y-100585714D01*
X150063095Y-100395238D01*
X150158333Y-100300000D01*
X150253571Y-100252380D01*
X150444047Y-100252380D01*
X150539285Y-100300000D01*
X150634523Y-100395238D01*
X150682142Y-100585714D01*
X150682142Y-100919047D01*
X150634523Y-101109523D01*
X150539285Y-101204761D01*
X150444047Y-101252380D01*
X150253571Y-101252380D01*
X151063095Y-100347619D02*
X151110714Y-100300000D01*
X151205952Y-100252380D01*
X151444047Y-100252380D01*
X151539285Y-100300000D01*
X151586904Y-100347619D01*
X151634523Y-100442857D01*
X151634523Y-100538095D01*
X151586904Y-100680952D01*
X151015476Y-101252380D01*
X151634523Y-101252380D01*
%TO.C,LED1*%
X133860952Y-62552380D02*
X133384761Y-62552380D01*
X133384761Y-61552380D01*
X134194285Y-62028571D02*
X134527619Y-62028571D01*
X134670476Y-62552380D02*
X134194285Y-62552380D01*
X134194285Y-61552380D01*
X134670476Y-61552380D01*
X135099047Y-62552380D02*
X135099047Y-61552380D01*
X135337142Y-61552380D01*
X135480000Y-61600000D01*
X135575238Y-61695238D01*
X135622857Y-61790476D01*
X135670476Y-61980952D01*
X135670476Y-62123809D01*
X135622857Y-62314285D01*
X135575238Y-62409523D01*
X135480000Y-62504761D01*
X135337142Y-62552380D01*
X135099047Y-62552380D01*
X136622857Y-62552380D02*
X136051428Y-62552380D01*
X136337142Y-62552380D02*
X136337142Y-61552380D01*
X136241904Y-61695238D01*
X136146666Y-61790476D01*
X136051428Y-61838095D01*
%TO.C,LED2*%
X197223452Y-97952380D02*
X196747261Y-97952380D01*
X196747261Y-96952380D01*
X197556785Y-97428571D02*
X197890119Y-97428571D01*
X198032976Y-97952380D02*
X197556785Y-97952380D01*
X197556785Y-96952380D01*
X198032976Y-96952380D01*
X198461547Y-97952380D02*
X198461547Y-96952380D01*
X198699642Y-96952380D01*
X198842500Y-97000000D01*
X198937738Y-97095238D01*
X198985357Y-97190476D01*
X199032976Y-97380952D01*
X199032976Y-97523809D01*
X198985357Y-97714285D01*
X198937738Y-97809523D01*
X198842500Y-97904761D01*
X198699642Y-97952380D01*
X198461547Y-97952380D01*
X199413928Y-97047619D02*
X199461547Y-97000000D01*
X199556785Y-96952380D01*
X199794880Y-96952380D01*
X199890119Y-97000000D01*
X199937738Y-97047619D01*
X199985357Y-97142857D01*
X199985357Y-97238095D01*
X199937738Y-97380952D01*
X199366309Y-97952380D01*
X199985357Y-97952380D01*
%TO.C,Q1*%
X150579761Y-61697619D02*
X150484523Y-61650000D01*
X150389285Y-61554761D01*
X150246428Y-61411904D01*
X150151190Y-61364285D01*
X150055952Y-61364285D01*
X150103571Y-61602380D02*
X150008333Y-61554761D01*
X149913095Y-61459523D01*
X149865476Y-61269047D01*
X149865476Y-60935714D01*
X149913095Y-60745238D01*
X150008333Y-60650000D01*
X150103571Y-60602380D01*
X150294047Y-60602380D01*
X150389285Y-60650000D01*
X150484523Y-60745238D01*
X150532142Y-60935714D01*
X150532142Y-61269047D01*
X150484523Y-61459523D01*
X150389285Y-61554761D01*
X150294047Y-61602380D01*
X150103571Y-61602380D01*
X151484523Y-61602380D02*
X150913095Y-61602380D01*
X151198809Y-61602380D02*
X151198809Y-60602380D01*
X151103571Y-60745238D01*
X151008333Y-60840476D01*
X150913095Y-60888095D01*
%TO.C,motor-1*%
X131726190Y-65127380D02*
X131726190Y-64460714D01*
X131726190Y-64555952D02*
X131773809Y-64508333D01*
X131869047Y-64460714D01*
X132011904Y-64460714D01*
X132107142Y-64508333D01*
X132154761Y-64603571D01*
X132154761Y-65127380D01*
X132154761Y-64603571D02*
X132202380Y-64508333D01*
X132297619Y-64460714D01*
X132440476Y-64460714D01*
X132535714Y-64508333D01*
X132583333Y-64603571D01*
X132583333Y-65127380D01*
X133202380Y-65127380D02*
X133107142Y-65079761D01*
X133059523Y-65032142D01*
X133011904Y-64936904D01*
X133011904Y-64651190D01*
X133059523Y-64555952D01*
X133107142Y-64508333D01*
X133202380Y-64460714D01*
X133345238Y-64460714D01*
X133440476Y-64508333D01*
X133488095Y-64555952D01*
X133535714Y-64651190D01*
X133535714Y-64936904D01*
X133488095Y-65032142D01*
X133440476Y-65079761D01*
X133345238Y-65127380D01*
X133202380Y-65127380D01*
X133821428Y-64460714D02*
X134202380Y-64460714D01*
X133964285Y-64127380D02*
X133964285Y-64984523D01*
X134011904Y-65079761D01*
X134107142Y-65127380D01*
X134202380Y-65127380D01*
X134678571Y-65127380D02*
X134583333Y-65079761D01*
X134535714Y-65032142D01*
X134488095Y-64936904D01*
X134488095Y-64651190D01*
X134535714Y-64555952D01*
X134583333Y-64508333D01*
X134678571Y-64460714D01*
X134821428Y-64460714D01*
X134916666Y-64508333D01*
X134964285Y-64555952D01*
X135011904Y-64651190D01*
X135011904Y-64936904D01*
X134964285Y-65032142D01*
X134916666Y-65079761D01*
X134821428Y-65127380D01*
X134678571Y-65127380D01*
X135440476Y-65127380D02*
X135440476Y-64460714D01*
X135440476Y-64651190D02*
X135488095Y-64555952D01*
X135535714Y-64508333D01*
X135630952Y-64460714D01*
X135726190Y-64460714D01*
X136059523Y-64746428D02*
X136821428Y-64746428D01*
X137821428Y-65127380D02*
X137250000Y-65127380D01*
X137535714Y-65127380D02*
X137535714Y-64127380D01*
X137440476Y-64270238D01*
X137345238Y-64365476D01*
X137250000Y-64413095D01*
%TO.C,motor-4*%
X194201190Y-65247380D02*
X194201190Y-64580714D01*
X194201190Y-64675952D02*
X194248809Y-64628333D01*
X194344047Y-64580714D01*
X194486904Y-64580714D01*
X194582142Y-64628333D01*
X194629761Y-64723571D01*
X194629761Y-65247380D01*
X194629761Y-64723571D02*
X194677380Y-64628333D01*
X194772619Y-64580714D01*
X194915476Y-64580714D01*
X195010714Y-64628333D01*
X195058333Y-64723571D01*
X195058333Y-65247380D01*
X195677380Y-65247380D02*
X195582142Y-65199761D01*
X195534523Y-65152142D01*
X195486904Y-65056904D01*
X195486904Y-64771190D01*
X195534523Y-64675952D01*
X195582142Y-64628333D01*
X195677380Y-64580714D01*
X195820238Y-64580714D01*
X195915476Y-64628333D01*
X195963095Y-64675952D01*
X196010714Y-64771190D01*
X196010714Y-65056904D01*
X195963095Y-65152142D01*
X195915476Y-65199761D01*
X195820238Y-65247380D01*
X195677380Y-65247380D01*
X196296428Y-64580714D02*
X196677380Y-64580714D01*
X196439285Y-64247380D02*
X196439285Y-65104523D01*
X196486904Y-65199761D01*
X196582142Y-65247380D01*
X196677380Y-65247380D01*
X197153571Y-65247380D02*
X197058333Y-65199761D01*
X197010714Y-65152142D01*
X196963095Y-65056904D01*
X196963095Y-64771190D01*
X197010714Y-64675952D01*
X197058333Y-64628333D01*
X197153571Y-64580714D01*
X197296428Y-64580714D01*
X197391666Y-64628333D01*
X197439285Y-64675952D01*
X197486904Y-64771190D01*
X197486904Y-65056904D01*
X197439285Y-65152142D01*
X197391666Y-65199761D01*
X197296428Y-65247380D01*
X197153571Y-65247380D01*
X197915476Y-65247380D02*
X197915476Y-64580714D01*
X197915476Y-64771190D02*
X197963095Y-64675952D01*
X198010714Y-64628333D01*
X198105952Y-64580714D01*
X198201190Y-64580714D01*
X198534523Y-64866428D02*
X199296428Y-64866428D01*
X200201190Y-64580714D02*
X200201190Y-65247380D01*
X199963095Y-64199761D02*
X199725000Y-64914047D01*
X200344047Y-64914047D01*
%TO.C,R12*%
X150357142Y-78402380D02*
X150023809Y-77926190D01*
X149785714Y-78402380D02*
X149785714Y-77402380D01*
X150166666Y-77402380D01*
X150261904Y-77450000D01*
X150309523Y-77497619D01*
X150357142Y-77592857D01*
X150357142Y-77735714D01*
X150309523Y-77830952D01*
X150261904Y-77878571D01*
X150166666Y-77926190D01*
X149785714Y-77926190D01*
X151309523Y-78402380D02*
X150738095Y-78402380D01*
X151023809Y-78402380D02*
X151023809Y-77402380D01*
X150928571Y-77545238D01*
X150833333Y-77640476D01*
X150738095Y-77688095D01*
X151690476Y-77497619D02*
X151738095Y-77450000D01*
X151833333Y-77402380D01*
X152071428Y-77402380D01*
X152166666Y-77450000D01*
X152214285Y-77497619D01*
X152261904Y-77592857D01*
X152261904Y-77688095D01*
X152214285Y-77830952D01*
X151642857Y-78402380D01*
X152261904Y-78402380D01*
%TO.C,battery-1*%
X186177380Y-105202380D02*
X185177380Y-105202380D01*
X185558333Y-105202380D02*
X185510714Y-105107142D01*
X185510714Y-104916666D01*
X185558333Y-104821428D01*
X185605952Y-104773809D01*
X185701190Y-104726190D01*
X185986904Y-104726190D01*
X186082142Y-104773809D01*
X186129761Y-104821428D01*
X186177380Y-104916666D01*
X186177380Y-105107142D01*
X186129761Y-105202380D01*
X186177380Y-103869047D02*
X185653571Y-103869047D01*
X185558333Y-103916666D01*
X185510714Y-104011904D01*
X185510714Y-104202380D01*
X185558333Y-104297619D01*
X186129761Y-103869047D02*
X186177380Y-103964285D01*
X186177380Y-104202380D01*
X186129761Y-104297619D01*
X186034523Y-104345238D01*
X185939285Y-104345238D01*
X185844047Y-104297619D01*
X185796428Y-104202380D01*
X185796428Y-103964285D01*
X185748809Y-103869047D01*
X185510714Y-103535714D02*
X185510714Y-103154761D01*
X185177380Y-103392857D02*
X186034523Y-103392857D01*
X186129761Y-103345238D01*
X186177380Y-103250000D01*
X186177380Y-103154761D01*
X185510714Y-102964285D02*
X185510714Y-102583333D01*
X185177380Y-102821428D02*
X186034523Y-102821428D01*
X186129761Y-102773809D01*
X186177380Y-102678571D01*
X186177380Y-102583333D01*
X186129761Y-101869047D02*
X186177380Y-101964285D01*
X186177380Y-102154761D01*
X186129761Y-102250000D01*
X186034523Y-102297619D01*
X185653571Y-102297619D01*
X185558333Y-102250000D01*
X185510714Y-102154761D01*
X185510714Y-101964285D01*
X185558333Y-101869047D01*
X185653571Y-101821428D01*
X185748809Y-101821428D01*
X185844047Y-102297619D01*
X186177380Y-101392857D02*
X185510714Y-101392857D01*
X185701190Y-101392857D02*
X185605952Y-101345238D01*
X185558333Y-101297619D01*
X185510714Y-101202380D01*
X185510714Y-101107142D01*
X185510714Y-100869047D02*
X186177380Y-100630952D01*
X185510714Y-100392857D02*
X186177380Y-100630952D01*
X186415476Y-100726190D01*
X186463095Y-100773809D01*
X186510714Y-100869047D01*
X185796428Y-100011904D02*
X185796428Y-99250000D01*
X186177380Y-98250000D02*
X186177380Y-98821428D01*
X186177380Y-98535714D02*
X185177380Y-98535714D01*
X185320238Y-98630952D01*
X185415476Y-98726190D01*
X185463095Y-98821428D01*
%TO.C,R9*%
X166628333Y-68877380D02*
X166295000Y-68401190D01*
X166056904Y-68877380D02*
X166056904Y-67877380D01*
X166437857Y-67877380D01*
X166533095Y-67925000D01*
X166580714Y-67972619D01*
X166628333Y-68067857D01*
X166628333Y-68210714D01*
X166580714Y-68305952D01*
X166533095Y-68353571D01*
X166437857Y-68401190D01*
X166056904Y-68401190D01*
X167104523Y-68877380D02*
X167295000Y-68877380D01*
X167390238Y-68829761D01*
X167437857Y-68782142D01*
X167533095Y-68639285D01*
X167580714Y-68448809D01*
X167580714Y-68067857D01*
X167533095Y-67972619D01*
X167485476Y-67925000D01*
X167390238Y-67877380D01*
X167199761Y-67877380D01*
X167104523Y-67925000D01*
X167056904Y-67972619D01*
X167009285Y-68067857D01*
X167009285Y-68305952D01*
X167056904Y-68401190D01*
X167104523Y-68448809D01*
X167199761Y-68496428D01*
X167390238Y-68496428D01*
X167485476Y-68448809D01*
X167533095Y-68401190D01*
X167580714Y-68305952D01*
%TO.C,R7*%
X150783333Y-90402380D02*
X150450000Y-89926190D01*
X150211904Y-90402380D02*
X150211904Y-89402380D01*
X150592857Y-89402380D01*
X150688095Y-89450000D01*
X150735714Y-89497619D01*
X150783333Y-89592857D01*
X150783333Y-89735714D01*
X150735714Y-89830952D01*
X150688095Y-89878571D01*
X150592857Y-89926190D01*
X150211904Y-89926190D01*
X151116666Y-89402380D02*
X151783333Y-89402380D01*
X151354761Y-90402380D01*
%TO.C,R1*%
X149102380Y-63891666D02*
X148626190Y-64225000D01*
X149102380Y-64463095D02*
X148102380Y-64463095D01*
X148102380Y-64082142D01*
X148150000Y-63986904D01*
X148197619Y-63939285D01*
X148292857Y-63891666D01*
X148435714Y-63891666D01*
X148530952Y-63939285D01*
X148578571Y-63986904D01*
X148626190Y-64082142D01*
X148626190Y-64463095D01*
X149102380Y-62939285D02*
X149102380Y-63510714D01*
X149102380Y-63225000D02*
X148102380Y-63225000D01*
X148245238Y-63320238D01*
X148340476Y-63415476D01*
X148388095Y-63510714D01*
%TO.C,D1*%
X137532380Y-68938095D02*
X136532380Y-68938095D01*
X136532380Y-68700000D01*
X136580000Y-68557142D01*
X136675238Y-68461904D01*
X136770476Y-68414285D01*
X136960952Y-68366666D01*
X137103809Y-68366666D01*
X137294285Y-68414285D01*
X137389523Y-68461904D01*
X137484761Y-68557142D01*
X137532380Y-68700000D01*
X137532380Y-68938095D01*
X137532380Y-67414285D02*
X137532380Y-67985714D01*
X137532380Y-67700000D02*
X136532380Y-67700000D01*
X136675238Y-67795238D01*
X136770476Y-67890476D01*
X136818095Y-67985714D01*
X137902380Y-73541904D02*
X136902380Y-73541904D01*
X137902380Y-72970476D02*
X137330952Y-73399047D01*
X136902380Y-72970476D02*
X137473809Y-73541904D01*
%TO.C,Q3*%
X184154761Y-96497619D02*
X184059523Y-96450000D01*
X183964285Y-96354761D01*
X183821428Y-96211904D01*
X183726190Y-96164285D01*
X183630952Y-96164285D01*
X183678571Y-96402380D02*
X183583333Y-96354761D01*
X183488095Y-96259523D01*
X183440476Y-96069047D01*
X183440476Y-95735714D01*
X183488095Y-95545238D01*
X183583333Y-95450000D01*
X183678571Y-95402380D01*
X183869047Y-95402380D01*
X183964285Y-95450000D01*
X184059523Y-95545238D01*
X184107142Y-95735714D01*
X184107142Y-96069047D01*
X184059523Y-96259523D01*
X183964285Y-96354761D01*
X183869047Y-96402380D01*
X183678571Y-96402380D01*
X184440476Y-95402380D02*
X185059523Y-95402380D01*
X184726190Y-95783333D01*
X184869047Y-95783333D01*
X184964285Y-95830952D01*
X185011904Y-95878571D01*
X185059523Y-95973809D01*
X185059523Y-96211904D01*
X185011904Y-96307142D01*
X184964285Y-96354761D01*
X184869047Y-96402380D01*
X184583333Y-96402380D01*
X184488095Y-96354761D01*
X184440476Y-96307142D01*
%TO.C,R3*%
X182902380Y-98666666D02*
X182426190Y-99000000D01*
X182902380Y-99238095D02*
X181902380Y-99238095D01*
X181902380Y-98857142D01*
X181950000Y-98761904D01*
X181997619Y-98714285D01*
X182092857Y-98666666D01*
X182235714Y-98666666D01*
X182330952Y-98714285D01*
X182378571Y-98761904D01*
X182426190Y-98857142D01*
X182426190Y-99238095D01*
X181902380Y-98333333D02*
X181902380Y-97714285D01*
X182283333Y-98047619D01*
X182283333Y-97904761D01*
X182330952Y-97809523D01*
X182378571Y-97761904D01*
X182473809Y-97714285D01*
X182711904Y-97714285D01*
X182807142Y-97761904D01*
X182854761Y-97809523D01*
X182902380Y-97904761D01*
X182902380Y-98190476D01*
X182854761Y-98285714D01*
X182807142Y-98333333D01*
%TO.C,D3*%
X196872380Y-94338095D02*
X195872380Y-94338095D01*
X195872380Y-94100000D01*
X195920000Y-93957142D01*
X196015238Y-93861904D01*
X196110476Y-93814285D01*
X196300952Y-93766666D01*
X196443809Y-93766666D01*
X196634285Y-93814285D01*
X196729523Y-93861904D01*
X196824761Y-93957142D01*
X196872380Y-94100000D01*
X196872380Y-94338095D01*
X195872380Y-93433333D02*
X195872380Y-92814285D01*
X196253333Y-93147619D01*
X196253333Y-93004761D01*
X196300952Y-92909523D01*
X196348571Y-92861904D01*
X196443809Y-92814285D01*
X196681904Y-92814285D01*
X196777142Y-92861904D01*
X196824761Y-92909523D01*
X196872380Y-93004761D01*
X196872380Y-93290476D01*
X196824761Y-93385714D01*
X196777142Y-93433333D01*
X196502380Y-88781904D02*
X195502380Y-88781904D01*
X196502380Y-88210476D02*
X195930952Y-88639047D01*
X195502380Y-88210476D02*
X196073809Y-88781904D01*
%TO.C,D2*%
X143947380Y-94613095D02*
X142947380Y-94613095D01*
X142947380Y-94375000D01*
X142995000Y-94232142D01*
X143090238Y-94136904D01*
X143185476Y-94089285D01*
X143375952Y-94041666D01*
X143518809Y-94041666D01*
X143709285Y-94089285D01*
X143804523Y-94136904D01*
X143899761Y-94232142D01*
X143947380Y-94375000D01*
X143947380Y-94613095D01*
X143042619Y-93660714D02*
X142995000Y-93613095D01*
X142947380Y-93517857D01*
X142947380Y-93279761D01*
X142995000Y-93184523D01*
X143042619Y-93136904D01*
X143137857Y-93089285D01*
X143233095Y-93089285D01*
X143375952Y-93136904D01*
X143947380Y-93708333D01*
X143947380Y-93089285D01*
X143577380Y-89056904D02*
X142577380Y-89056904D01*
X143577380Y-88485476D02*
X143005952Y-88914047D01*
X142577380Y-88485476D02*
X143148809Y-89056904D01*
%TO.C,R4*%
X183652380Y-63811666D02*
X183176190Y-64145000D01*
X183652380Y-64383095D02*
X182652380Y-64383095D01*
X182652380Y-64002142D01*
X182700000Y-63906904D01*
X182747619Y-63859285D01*
X182842857Y-63811666D01*
X182985714Y-63811666D01*
X183080952Y-63859285D01*
X183128571Y-63906904D01*
X183176190Y-64002142D01*
X183176190Y-64383095D01*
X182985714Y-62954523D02*
X183652380Y-62954523D01*
X182604761Y-63192619D02*
X183319047Y-63430714D01*
X183319047Y-62811666D01*
%TO.C,z4*%
X185490714Y-69208095D02*
X185490714Y-68684285D01*
X186157380Y-69208095D01*
X186157380Y-68684285D01*
X185490714Y-67874761D02*
X186157380Y-67874761D01*
X185109761Y-68112857D02*
X185824047Y-68350952D01*
X185824047Y-67731904D01*
X186527380Y-73811904D02*
X185527380Y-73811904D01*
X186527380Y-73240476D02*
X185955952Y-73669047D01*
X185527380Y-73240476D02*
X186098809Y-73811904D01*
%TO.C,LED4*%
X195980952Y-62972380D02*
X195504761Y-62972380D01*
X195504761Y-61972380D01*
X196314285Y-62448571D02*
X196647619Y-62448571D01*
X196790476Y-62972380D02*
X196314285Y-62972380D01*
X196314285Y-61972380D01*
X196790476Y-61972380D01*
X197219047Y-62972380D02*
X197219047Y-61972380D01*
X197457142Y-61972380D01*
X197600000Y-62020000D01*
X197695238Y-62115238D01*
X197742857Y-62210476D01*
X197790476Y-62400952D01*
X197790476Y-62543809D01*
X197742857Y-62734285D01*
X197695238Y-62829523D01*
X197600000Y-62924761D01*
X197457142Y-62972380D01*
X197219047Y-62972380D01*
X198647619Y-62305714D02*
X198647619Y-62972380D01*
X198409523Y-61924761D02*
X198171428Y-62639047D01*
X198790476Y-62639047D01*
%TO.C,rightIfAntennaOnTop1*%
X169685714Y-98152380D02*
X169685714Y-97485714D01*
X169685714Y-97676190D02*
X169733333Y-97580952D01*
X169780952Y-97533333D01*
X169876190Y-97485714D01*
X169971428Y-97485714D01*
X170304761Y-98152380D02*
X170304761Y-97485714D01*
X170304761Y-97152380D02*
X170257142Y-97200000D01*
X170304761Y-97247619D01*
X170352380Y-97200000D01*
X170304761Y-97152380D01*
X170304761Y-97247619D01*
X171209523Y-97485714D02*
X171209523Y-98295238D01*
X171161904Y-98390476D01*
X171114285Y-98438095D01*
X171019047Y-98485714D01*
X170876190Y-98485714D01*
X170780952Y-98438095D01*
X171209523Y-98104761D02*
X171114285Y-98152380D01*
X170923809Y-98152380D01*
X170828571Y-98104761D01*
X170780952Y-98057142D01*
X170733333Y-97961904D01*
X170733333Y-97676190D01*
X170780952Y-97580952D01*
X170828571Y-97533333D01*
X170923809Y-97485714D01*
X171114285Y-97485714D01*
X171209523Y-97533333D01*
X171685714Y-98152380D02*
X171685714Y-97152380D01*
X172114285Y-98152380D02*
X172114285Y-97628571D01*
X172066666Y-97533333D01*
X171971428Y-97485714D01*
X171828571Y-97485714D01*
X171733333Y-97533333D01*
X171685714Y-97580952D01*
X172447619Y-97485714D02*
X172828571Y-97485714D01*
X172590476Y-97152380D02*
X172590476Y-98009523D01*
X172638095Y-98104761D01*
X172733333Y-98152380D01*
X172828571Y-98152380D01*
X173161904Y-98152380D02*
X173161904Y-97152380D01*
X173495238Y-97485714D02*
X173876190Y-97485714D01*
X173638095Y-98152380D02*
X173638095Y-97295238D01*
X173685714Y-97200000D01*
X173780952Y-97152380D01*
X173876190Y-97152380D01*
X174161904Y-97866666D02*
X174638095Y-97866666D01*
X174066666Y-98152380D02*
X174400000Y-97152380D01*
X174733333Y-98152380D01*
X175066666Y-97485714D02*
X175066666Y-98152380D01*
X175066666Y-97580952D02*
X175114285Y-97533333D01*
X175209523Y-97485714D01*
X175352380Y-97485714D01*
X175447619Y-97533333D01*
X175495238Y-97628571D01*
X175495238Y-98152380D01*
X175828571Y-97485714D02*
X176209523Y-97485714D01*
X175971428Y-97152380D02*
X175971428Y-98009523D01*
X176019047Y-98104761D01*
X176114285Y-98152380D01*
X176209523Y-98152380D01*
X176923809Y-98104761D02*
X176828571Y-98152380D01*
X176638095Y-98152380D01*
X176542857Y-98104761D01*
X176495238Y-98009523D01*
X176495238Y-97628571D01*
X176542857Y-97533333D01*
X176638095Y-97485714D01*
X176828571Y-97485714D01*
X176923809Y-97533333D01*
X176971428Y-97628571D01*
X176971428Y-97723809D01*
X176495238Y-97819047D01*
X177400000Y-97485714D02*
X177400000Y-98152380D01*
X177400000Y-97580952D02*
X177447619Y-97533333D01*
X177542857Y-97485714D01*
X177685714Y-97485714D01*
X177780952Y-97533333D01*
X177828571Y-97628571D01*
X177828571Y-98152380D01*
X178304761Y-97485714D02*
X178304761Y-98152380D01*
X178304761Y-97580952D02*
X178352380Y-97533333D01*
X178447619Y-97485714D01*
X178590476Y-97485714D01*
X178685714Y-97533333D01*
X178733333Y-97628571D01*
X178733333Y-98152380D01*
X179638095Y-98152380D02*
X179638095Y-97628571D01*
X179590476Y-97533333D01*
X179495238Y-97485714D01*
X179304761Y-97485714D01*
X179209523Y-97533333D01*
X179638095Y-98104761D02*
X179542857Y-98152380D01*
X179304761Y-98152380D01*
X179209523Y-98104761D01*
X179161904Y-98009523D01*
X179161904Y-97914285D01*
X179209523Y-97819047D01*
X179304761Y-97771428D01*
X179542857Y-97771428D01*
X179638095Y-97723809D01*
X180304761Y-97152380D02*
X180495238Y-97152380D01*
X180590476Y-97200000D01*
X180685714Y-97295238D01*
X180733333Y-97485714D01*
X180733333Y-97819047D01*
X180685714Y-98009523D01*
X180590476Y-98104761D01*
X180495238Y-98152380D01*
X180304761Y-98152380D01*
X180209523Y-98104761D01*
X180114285Y-98009523D01*
X180066666Y-97819047D01*
X180066666Y-97485714D01*
X180114285Y-97295238D01*
X180209523Y-97200000D01*
X180304761Y-97152380D01*
X181161904Y-97485714D02*
X181161904Y-98152380D01*
X181161904Y-97580952D02*
X181209523Y-97533333D01*
X181304761Y-97485714D01*
X181447619Y-97485714D01*
X181542857Y-97533333D01*
X181590476Y-97628571D01*
X181590476Y-98152380D01*
X181923809Y-97152380D02*
X182495238Y-97152380D01*
X182209523Y-98152380D02*
X182209523Y-97152380D01*
X182971428Y-98152380D02*
X182876190Y-98104761D01*
X182828571Y-98057142D01*
X182780952Y-97961904D01*
X182780952Y-97676190D01*
X182828571Y-97580952D01*
X182876190Y-97533333D01*
X182971428Y-97485714D01*
X183114285Y-97485714D01*
X183209523Y-97533333D01*
X183257142Y-97580952D01*
X183304761Y-97676190D01*
X183304761Y-97961904D01*
X183257142Y-98057142D01*
X183209523Y-98104761D01*
X183114285Y-98152380D01*
X182971428Y-98152380D01*
X183733333Y-97485714D02*
X183733333Y-98485714D01*
X183733333Y-97533333D02*
X183828571Y-97485714D01*
X184019047Y-97485714D01*
X184114285Y-97533333D01*
X184161904Y-97580952D01*
X184209523Y-97676190D01*
X184209523Y-97961904D01*
X184161904Y-98057142D01*
X184114285Y-98104761D01*
X184019047Y-98152380D01*
X183828571Y-98152380D01*
X183733333Y-98104761D01*
X185161904Y-98152380D02*
X184590476Y-98152380D01*
X184876190Y-98152380D02*
X184876190Y-97152380D01*
X184780952Y-97295238D01*
X184685714Y-97390476D01*
X184590476Y-97438095D01*
%TO.C,MPU1*%
X157402380Y-58708333D02*
X156402380Y-58708333D01*
X157116666Y-58375000D01*
X156402380Y-58041666D01*
X157402380Y-58041666D01*
X157402380Y-57565476D02*
X156402380Y-57565476D01*
X156402380Y-57184523D01*
X156450000Y-57089285D01*
X156497619Y-57041666D01*
X156592857Y-56994047D01*
X156735714Y-56994047D01*
X156830952Y-57041666D01*
X156878571Y-57089285D01*
X156926190Y-57184523D01*
X156926190Y-57565476D01*
X156402380Y-56565476D02*
X157211904Y-56565476D01*
X157307142Y-56517857D01*
X157354761Y-56470238D01*
X157402380Y-56375000D01*
X157402380Y-56184523D01*
X157354761Y-56089285D01*
X157307142Y-56041666D01*
X157211904Y-55994047D01*
X156402380Y-55994047D01*
X157402380Y-54994047D02*
X157402380Y-55565476D01*
X157402380Y-55279761D02*
X156402380Y-55279761D01*
X156545238Y-55375000D01*
X156640476Y-55470238D01*
X156688095Y-55565476D01*
%TO.C,R8*%
X150758333Y-88402380D02*
X150425000Y-87926190D01*
X150186904Y-88402380D02*
X150186904Y-87402380D01*
X150567857Y-87402380D01*
X150663095Y-87450000D01*
X150710714Y-87497619D01*
X150758333Y-87592857D01*
X150758333Y-87735714D01*
X150710714Y-87830952D01*
X150663095Y-87878571D01*
X150567857Y-87926190D01*
X150186904Y-87926190D01*
X151329761Y-87830952D02*
X151234523Y-87783333D01*
X151186904Y-87735714D01*
X151139285Y-87640476D01*
X151139285Y-87592857D01*
X151186904Y-87497619D01*
X151234523Y-87450000D01*
X151329761Y-87402380D01*
X151520238Y-87402380D01*
X151615476Y-87450000D01*
X151663095Y-87497619D01*
X151710714Y-87592857D01*
X151710714Y-87640476D01*
X151663095Y-87735714D01*
X151615476Y-87783333D01*
X151520238Y-87830952D01*
X151329761Y-87830952D01*
X151234523Y-87878571D01*
X151186904Y-87926190D01*
X151139285Y-88021428D01*
X151139285Y-88211904D01*
X151186904Y-88307142D01*
X151234523Y-88354761D01*
X151329761Y-88402380D01*
X151520238Y-88402380D01*
X151615476Y-88354761D01*
X151663095Y-88307142D01*
X151710714Y-88211904D01*
X151710714Y-88021428D01*
X151663095Y-87926190D01*
X151615476Y-87878571D01*
X151520238Y-87830952D01*
%TO.C,z3*%
X191330714Y-94313095D02*
X191330714Y-93789285D01*
X191997380Y-94313095D01*
X191997380Y-93789285D01*
X190997380Y-93503571D02*
X190997380Y-92884523D01*
X191378333Y-93217857D01*
X191378333Y-93075000D01*
X191425952Y-92979761D01*
X191473571Y-92932142D01*
X191568809Y-92884523D01*
X191806904Y-92884523D01*
X191902142Y-92932142D01*
X191949761Y-92979761D01*
X191997380Y-93075000D01*
X191997380Y-93360714D01*
X191949761Y-93455952D01*
X191902142Y-93503571D01*
X191627380Y-88756904D02*
X190627380Y-88756904D01*
X191627380Y-88185476D02*
X191055952Y-88614047D01*
X190627380Y-88185476D02*
X191198809Y-88756904D01*
%TO.C,motor-2*%
X133251190Y-98052380D02*
X133251190Y-97385714D01*
X133251190Y-97480952D02*
X133298809Y-97433333D01*
X133394047Y-97385714D01*
X133536904Y-97385714D01*
X133632142Y-97433333D01*
X133679761Y-97528571D01*
X133679761Y-98052380D01*
X133679761Y-97528571D02*
X133727380Y-97433333D01*
X133822619Y-97385714D01*
X133965476Y-97385714D01*
X134060714Y-97433333D01*
X134108333Y-97528571D01*
X134108333Y-98052380D01*
X134727380Y-98052380D02*
X134632142Y-98004761D01*
X134584523Y-97957142D01*
X134536904Y-97861904D01*
X134536904Y-97576190D01*
X134584523Y-97480952D01*
X134632142Y-97433333D01*
X134727380Y-97385714D01*
X134870238Y-97385714D01*
X134965476Y-97433333D01*
X135013095Y-97480952D01*
X135060714Y-97576190D01*
X135060714Y-97861904D01*
X135013095Y-97957142D01*
X134965476Y-98004761D01*
X134870238Y-98052380D01*
X134727380Y-98052380D01*
X135346428Y-97385714D02*
X135727380Y-97385714D01*
X135489285Y-97052380D02*
X135489285Y-97909523D01*
X135536904Y-98004761D01*
X135632142Y-98052380D01*
X135727380Y-98052380D01*
X136203571Y-98052380D02*
X136108333Y-98004761D01*
X136060714Y-97957142D01*
X136013095Y-97861904D01*
X136013095Y-97576190D01*
X136060714Y-97480952D01*
X136108333Y-97433333D01*
X136203571Y-97385714D01*
X136346428Y-97385714D01*
X136441666Y-97433333D01*
X136489285Y-97480952D01*
X136536904Y-97576190D01*
X136536904Y-97861904D01*
X136489285Y-97957142D01*
X136441666Y-98004761D01*
X136346428Y-98052380D01*
X136203571Y-98052380D01*
X136965476Y-98052380D02*
X136965476Y-97385714D01*
X136965476Y-97576190D02*
X137013095Y-97480952D01*
X137060714Y-97433333D01*
X137155952Y-97385714D01*
X137251190Y-97385714D01*
X137584523Y-97671428D02*
X138346428Y-97671428D01*
X138775000Y-97147619D02*
X138822619Y-97100000D01*
X138917857Y-97052380D01*
X139155952Y-97052380D01*
X139251190Y-97100000D01*
X139298809Y-97147619D01*
X139346428Y-97242857D01*
X139346428Y-97338095D01*
X139298809Y-97480952D01*
X138727380Y-98052380D01*
X139346428Y-98052380D01*
%TO.C,R10*%
X166257142Y-68802380D02*
X165923809Y-68326190D01*
X165685714Y-68802380D02*
X165685714Y-67802380D01*
X166066666Y-67802380D01*
X166161904Y-67850000D01*
X166209523Y-67897619D01*
X166257142Y-67992857D01*
X166257142Y-68135714D01*
X166209523Y-68230952D01*
X166161904Y-68278571D01*
X166066666Y-68326190D01*
X165685714Y-68326190D01*
X167209523Y-68802380D02*
X166638095Y-68802380D01*
X166923809Y-68802380D02*
X166923809Y-67802380D01*
X166828571Y-67945238D01*
X166733333Y-68040476D01*
X166638095Y-68088095D01*
X167828571Y-67802380D02*
X167923809Y-67802380D01*
X168019047Y-67850000D01*
X168066666Y-67897619D01*
X168114285Y-67992857D01*
X168161904Y-68183333D01*
X168161904Y-68421428D01*
X168114285Y-68611904D01*
X168066666Y-68707142D01*
X168019047Y-68754761D01*
X167923809Y-68802380D01*
X167828571Y-68802380D01*
X167733333Y-68754761D01*
X167685714Y-68707142D01*
X167638095Y-68611904D01*
X167590476Y-68421428D01*
X167590476Y-68183333D01*
X167638095Y-67992857D01*
X167685714Y-67897619D01*
X167733333Y-67850000D01*
X167828571Y-67802380D01*
%TO.C,C1*%
X174183333Y-95057142D02*
X174135714Y-95104761D01*
X173992857Y-95152380D01*
X173897619Y-95152380D01*
X173754761Y-95104761D01*
X173659523Y-95009523D01*
X173611904Y-94914285D01*
X173564285Y-94723809D01*
X173564285Y-94580952D01*
X173611904Y-94390476D01*
X173659523Y-94295238D01*
X173754761Y-94200000D01*
X173897619Y-94152380D01*
X173992857Y-94152380D01*
X174135714Y-94200000D01*
X174183333Y-94247619D01*
X175135714Y-95152380D02*
X174564285Y-95152380D01*
X174850000Y-95152380D02*
X174850000Y-94152380D01*
X174754761Y-94295238D01*
X174659523Y-94390476D01*
X174564285Y-94438095D01*
%TO.C,Q4*%
X181079761Y-66447619D02*
X180984523Y-66400000D01*
X180889285Y-66304761D01*
X180746428Y-66161904D01*
X180651190Y-66114285D01*
X180555952Y-66114285D01*
X180603571Y-66352380D02*
X180508333Y-66304761D01*
X180413095Y-66209523D01*
X180365476Y-66019047D01*
X180365476Y-65685714D01*
X180413095Y-65495238D01*
X180508333Y-65400000D01*
X180603571Y-65352380D01*
X180794047Y-65352380D01*
X180889285Y-65400000D01*
X180984523Y-65495238D01*
X181032142Y-65685714D01*
X181032142Y-66019047D01*
X180984523Y-66209523D01*
X180889285Y-66304761D01*
X180794047Y-66352380D01*
X180603571Y-66352380D01*
X181889285Y-65685714D02*
X181889285Y-66352380D01*
X181651190Y-65304761D02*
X181413095Y-66019047D01*
X182032142Y-66019047D01*
%TO.C,motor-3*%
X195551190Y-97552380D02*
X195551190Y-96885714D01*
X195551190Y-96980952D02*
X195598809Y-96933333D01*
X195694047Y-96885714D01*
X195836904Y-96885714D01*
X195932142Y-96933333D01*
X195979761Y-97028571D01*
X195979761Y-97552380D01*
X195979761Y-97028571D02*
X196027380Y-96933333D01*
X196122619Y-96885714D01*
X196265476Y-96885714D01*
X196360714Y-96933333D01*
X196408333Y-97028571D01*
X196408333Y-97552380D01*
X197027380Y-97552380D02*
X196932142Y-97504761D01*
X196884523Y-97457142D01*
X196836904Y-97361904D01*
X196836904Y-97076190D01*
X196884523Y-96980952D01*
X196932142Y-96933333D01*
X197027380Y-96885714D01*
X197170238Y-96885714D01*
X197265476Y-96933333D01*
X197313095Y-96980952D01*
X197360714Y-97076190D01*
X197360714Y-97361904D01*
X197313095Y-97457142D01*
X197265476Y-97504761D01*
X197170238Y-97552380D01*
X197027380Y-97552380D01*
X197646428Y-96885714D02*
X198027380Y-96885714D01*
X197789285Y-96552380D02*
X197789285Y-97409523D01*
X197836904Y-97504761D01*
X197932142Y-97552380D01*
X198027380Y-97552380D01*
X198503571Y-97552380D02*
X198408333Y-97504761D01*
X198360714Y-97457142D01*
X198313095Y-97361904D01*
X198313095Y-97076190D01*
X198360714Y-96980952D01*
X198408333Y-96933333D01*
X198503571Y-96885714D01*
X198646428Y-96885714D01*
X198741666Y-96933333D01*
X198789285Y-96980952D01*
X198836904Y-97076190D01*
X198836904Y-97361904D01*
X198789285Y-97457142D01*
X198741666Y-97504761D01*
X198646428Y-97552380D01*
X198503571Y-97552380D01*
X199265476Y-97552380D02*
X199265476Y-96885714D01*
X199265476Y-97076190D02*
X199313095Y-96980952D01*
X199360714Y-96933333D01*
X199455952Y-96885714D01*
X199551190Y-96885714D01*
X199884523Y-97171428D02*
X200646428Y-97171428D01*
X201027380Y-96552380D02*
X201646428Y-96552380D01*
X201313095Y-96933333D01*
X201455952Y-96933333D01*
X201551190Y-96980952D01*
X201598809Y-97028571D01*
X201646428Y-97123809D01*
X201646428Y-97361904D01*
X201598809Y-97457142D01*
X201551190Y-97504761D01*
X201455952Y-97552380D01*
X201170238Y-97552380D01*
X201075000Y-97504761D01*
X201027380Y-97457142D01*
%TO.C,LED5*%
X148155952Y-72427380D02*
X147679761Y-72427380D01*
X147679761Y-71427380D01*
X148489285Y-71903571D02*
X148822619Y-71903571D01*
X148965476Y-72427380D02*
X148489285Y-72427380D01*
X148489285Y-71427380D01*
X148965476Y-71427380D01*
X149394047Y-72427380D02*
X149394047Y-71427380D01*
X149632142Y-71427380D01*
X149775000Y-71475000D01*
X149870238Y-71570238D01*
X149917857Y-71665476D01*
X149965476Y-71855952D01*
X149965476Y-71998809D01*
X149917857Y-72189285D01*
X149870238Y-72284523D01*
X149775000Y-72379761D01*
X149632142Y-72427380D01*
X149394047Y-72427380D01*
X150870238Y-71427380D02*
X150394047Y-71427380D01*
X150346428Y-71903571D01*
X150394047Y-71855952D01*
X150489285Y-71808333D01*
X150727380Y-71808333D01*
X150822619Y-71855952D01*
X150870238Y-71903571D01*
X150917857Y-71998809D01*
X150917857Y-72236904D01*
X150870238Y-72332142D01*
X150822619Y-72379761D01*
X150727380Y-72427380D01*
X150489285Y-72427380D01*
X150394047Y-72379761D01*
X150346428Y-72332142D01*
%TO.C,R5*%
X179983333Y-72702380D02*
X179650000Y-72226190D01*
X179411904Y-72702380D02*
X179411904Y-71702380D01*
X179792857Y-71702380D01*
X179888095Y-71750000D01*
X179935714Y-71797619D01*
X179983333Y-71892857D01*
X179983333Y-72035714D01*
X179935714Y-72130952D01*
X179888095Y-72178571D01*
X179792857Y-72226190D01*
X179411904Y-72226190D01*
X180888095Y-71702380D02*
X180411904Y-71702380D01*
X180364285Y-72178571D01*
X180411904Y-72130952D01*
X180507142Y-72083333D01*
X180745238Y-72083333D01*
X180840476Y-72130952D01*
X180888095Y-72178571D01*
X180935714Y-72273809D01*
X180935714Y-72511904D01*
X180888095Y-72607142D01*
X180840476Y-72654761D01*
X180745238Y-72702380D01*
X180507142Y-72702380D01*
X180411904Y-72654761D01*
X180364285Y-72607142D01*
%TO.C,z2*%
X148305714Y-94533095D02*
X148305714Y-94009285D01*
X148972380Y-94533095D01*
X148972380Y-94009285D01*
X148067619Y-93675952D02*
X148020000Y-93628333D01*
X147972380Y-93533095D01*
X147972380Y-93295000D01*
X148020000Y-93199761D01*
X148067619Y-93152142D01*
X148162857Y-93104523D01*
X148258095Y-93104523D01*
X148400952Y-93152142D01*
X148972380Y-93723571D01*
X148972380Y-93104523D01*
X148602380Y-88976904D02*
X147602380Y-88976904D01*
X148602380Y-88405476D02*
X148030952Y-88834047D01*
X147602380Y-88405476D02*
X148173809Y-88976904D01*
%TO.C,leftIfAntennaOnTop1*%
X147329761Y-64952380D02*
X147234523Y-64904761D01*
X147186904Y-64809523D01*
X147186904Y-63952380D01*
X148091666Y-64904761D02*
X147996428Y-64952380D01*
X147805952Y-64952380D01*
X147710714Y-64904761D01*
X147663095Y-64809523D01*
X147663095Y-64428571D01*
X147710714Y-64333333D01*
X147805952Y-64285714D01*
X147996428Y-64285714D01*
X148091666Y-64333333D01*
X148139285Y-64428571D01*
X148139285Y-64523809D01*
X147663095Y-64619047D01*
X148425000Y-64285714D02*
X148805952Y-64285714D01*
X148567857Y-64952380D02*
X148567857Y-64095238D01*
X148615476Y-64000000D01*
X148710714Y-63952380D01*
X148805952Y-63952380D01*
X148996428Y-64285714D02*
X149377380Y-64285714D01*
X149139285Y-63952380D02*
X149139285Y-64809523D01*
X149186904Y-64904761D01*
X149282142Y-64952380D01*
X149377380Y-64952380D01*
X149710714Y-64952380D02*
X149710714Y-63952380D01*
X150044047Y-64285714D02*
X150425000Y-64285714D01*
X150186904Y-64952380D02*
X150186904Y-64095238D01*
X150234523Y-64000000D01*
X150329761Y-63952380D01*
X150425000Y-63952380D01*
X150710714Y-64666666D02*
X151186904Y-64666666D01*
X150615476Y-64952380D02*
X150948809Y-63952380D01*
X151282142Y-64952380D01*
X151615476Y-64285714D02*
X151615476Y-64952380D01*
X151615476Y-64380952D02*
X151663095Y-64333333D01*
X151758333Y-64285714D01*
X151901190Y-64285714D01*
X151996428Y-64333333D01*
X152044047Y-64428571D01*
X152044047Y-64952380D01*
X152377380Y-64285714D02*
X152758333Y-64285714D01*
X152520238Y-63952380D02*
X152520238Y-64809523D01*
X152567857Y-64904761D01*
X152663095Y-64952380D01*
X152758333Y-64952380D01*
X153472619Y-64904761D02*
X153377380Y-64952380D01*
X153186904Y-64952380D01*
X153091666Y-64904761D01*
X153044047Y-64809523D01*
X153044047Y-64428571D01*
X153091666Y-64333333D01*
X153186904Y-64285714D01*
X153377380Y-64285714D01*
X153472619Y-64333333D01*
X153520238Y-64428571D01*
X153520238Y-64523809D01*
X153044047Y-64619047D01*
X153948809Y-64285714D02*
X153948809Y-64952380D01*
X153948809Y-64380952D02*
X153996428Y-64333333D01*
X154091666Y-64285714D01*
X154234523Y-64285714D01*
X154329761Y-64333333D01*
X154377380Y-64428571D01*
X154377380Y-64952380D01*
X154853571Y-64285714D02*
X154853571Y-64952380D01*
X154853571Y-64380952D02*
X154901190Y-64333333D01*
X154996428Y-64285714D01*
X155139285Y-64285714D01*
X155234523Y-64333333D01*
X155282142Y-64428571D01*
X155282142Y-64952380D01*
X156186904Y-64952380D02*
X156186904Y-64428571D01*
X156139285Y-64333333D01*
X156044047Y-64285714D01*
X155853571Y-64285714D01*
X155758333Y-64333333D01*
X156186904Y-64904761D02*
X156091666Y-64952380D01*
X155853571Y-64952380D01*
X155758333Y-64904761D01*
X155710714Y-64809523D01*
X155710714Y-64714285D01*
X155758333Y-64619047D01*
X155853571Y-64571428D01*
X156091666Y-64571428D01*
X156186904Y-64523809D01*
X156853571Y-63952380D02*
X157044047Y-63952380D01*
X157139285Y-64000000D01*
X157234523Y-64095238D01*
X157282142Y-64285714D01*
X157282142Y-64619047D01*
X157234523Y-64809523D01*
X157139285Y-64904761D01*
X157044047Y-64952380D01*
X156853571Y-64952380D01*
X156758333Y-64904761D01*
X156663095Y-64809523D01*
X156615476Y-64619047D01*
X156615476Y-64285714D01*
X156663095Y-64095238D01*
X156758333Y-64000000D01*
X156853571Y-63952380D01*
X157710714Y-64285714D02*
X157710714Y-64952380D01*
X157710714Y-64380952D02*
X157758333Y-64333333D01*
X157853571Y-64285714D01*
X157996428Y-64285714D01*
X158091666Y-64333333D01*
X158139285Y-64428571D01*
X158139285Y-64952380D01*
X158472619Y-63952380D02*
X159044047Y-63952380D01*
X158758333Y-64952380D02*
X158758333Y-63952380D01*
X159520238Y-64952380D02*
X159425000Y-64904761D01*
X159377380Y-64857142D01*
X159329761Y-64761904D01*
X159329761Y-64476190D01*
X159377380Y-64380952D01*
X159425000Y-64333333D01*
X159520238Y-64285714D01*
X159663095Y-64285714D01*
X159758333Y-64333333D01*
X159805952Y-64380952D01*
X159853571Y-64476190D01*
X159853571Y-64761904D01*
X159805952Y-64857142D01*
X159758333Y-64904761D01*
X159663095Y-64952380D01*
X159520238Y-64952380D01*
X160282142Y-64285714D02*
X160282142Y-65285714D01*
X160282142Y-64333333D02*
X160377380Y-64285714D01*
X160567857Y-64285714D01*
X160663095Y-64333333D01*
X160710714Y-64380952D01*
X160758333Y-64476190D01*
X160758333Y-64761904D01*
X160710714Y-64857142D01*
X160663095Y-64904761D01*
X160567857Y-64952380D01*
X160377380Y-64952380D01*
X160282142Y-64904761D01*
X161710714Y-64952380D02*
X161139285Y-64952380D01*
X161425000Y-64952380D02*
X161425000Y-63952380D01*
X161329761Y-64095238D01*
X161234523Y-64190476D01*
X161139285Y-64238095D01*
%TO.C,LED3*%
X135380952Y-98152380D02*
X134904761Y-98152380D01*
X134904761Y-97152380D01*
X135714285Y-97628571D02*
X136047619Y-97628571D01*
X136190476Y-98152380D02*
X135714285Y-98152380D01*
X135714285Y-97152380D01*
X136190476Y-97152380D01*
X136619047Y-98152380D02*
X136619047Y-97152380D01*
X136857142Y-97152380D01*
X137000000Y-97200000D01*
X137095238Y-97295238D01*
X137142857Y-97390476D01*
X137190476Y-97580952D01*
X137190476Y-97723809D01*
X137142857Y-97914285D01*
X137095238Y-98009523D01*
X137000000Y-98104761D01*
X136857142Y-98152380D01*
X136619047Y-98152380D01*
X137523809Y-97152380D02*
X138142857Y-97152380D01*
X137809523Y-97533333D01*
X137952380Y-97533333D01*
X138047619Y-97580952D01*
X138095238Y-97628571D01*
X138142857Y-97723809D01*
X138142857Y-97961904D01*
X138095238Y-98057142D01*
X138047619Y-98104761D01*
X137952380Y-98152380D01*
X137666666Y-98152380D01*
X137571428Y-98104761D01*
X137523809Y-98057142D01*
%TO.C,C2*%
X159308333Y-94782142D02*
X159260714Y-94829761D01*
X159117857Y-94877380D01*
X159022619Y-94877380D01*
X158879761Y-94829761D01*
X158784523Y-94734523D01*
X158736904Y-94639285D01*
X158689285Y-94448809D01*
X158689285Y-94305952D01*
X158736904Y-94115476D01*
X158784523Y-94020238D01*
X158879761Y-93925000D01*
X159022619Y-93877380D01*
X159117857Y-93877380D01*
X159260714Y-93925000D01*
X159308333Y-93972619D01*
X159689285Y-93972619D02*
X159736904Y-93925000D01*
X159832142Y-93877380D01*
X160070238Y-93877380D01*
X160165476Y-93925000D01*
X160213095Y-93972619D01*
X160260714Y-94067857D01*
X160260714Y-94163095D01*
X160213095Y-94305952D01*
X159641666Y-94877380D01*
X160260714Y-94877380D01*
D11*
%TO.C,D4*%
X190905000Y-70145000D02*
X193845000Y-70145000D01*
X190905000Y-65725000D02*
X190905000Y-71165000D01*
X190905000Y-71165000D02*
X193845000Y-71165000D01*
X193845000Y-71165000D02*
X193845000Y-65725000D01*
X193845000Y-65725000D02*
X190905000Y-65725000D01*
X192375000Y-64705000D02*
X192375000Y-65725000D01*
X192375000Y-72185000D02*
X192375000Y-71165000D01*
X190905000Y-70385000D02*
X193845000Y-70385000D01*
X190905000Y-70265000D02*
X193845000Y-70265000D01*
%TO.C,U1*%
X169585000Y-93800000D02*
X169585000Y-90040000D01*
X162765000Y-90040000D02*
X164025000Y-90040000D01*
X169585000Y-90040000D02*
X168325000Y-90040000D01*
X162765000Y-96050000D02*
X162765000Y-90040000D01*
%TO.C,z1*%
X142905000Y-70140000D02*
X145845000Y-70140000D01*
X145845000Y-65480000D02*
X142905000Y-65480000D01*
X142905000Y-70020000D02*
X145845000Y-70020000D01*
X145845000Y-70920000D02*
X145845000Y-65480000D01*
X144375000Y-71940000D02*
X144375000Y-70920000D01*
X142905000Y-65480000D02*
X142905000Y-70920000D01*
X144375000Y-64460000D02*
X144375000Y-65480000D01*
X142905000Y-70920000D02*
X145845000Y-70920000D01*
X142905000Y-69900000D02*
X145845000Y-69900000D01*
%TO.C,Q2*%
X150825000Y-96840000D02*
X151475000Y-96840000D01*
X150825000Y-99960000D02*
X150175000Y-99960000D01*
X150825000Y-96840000D02*
X150175000Y-96840000D01*
X150825000Y-99960000D02*
X152500000Y-99960000D01*
D12*
%TO.C,LED1*%
X134170000Y-63150000D02*
G75*
G03*
X134170000Y-63150000I-50000J0D01*
G01*
%TO.C,LED2*%
X197532500Y-98550000D02*
G75*
G03*
X197532500Y-98550000I-50000J0D01*
G01*
D11*
%TO.C,Q1*%
X150675000Y-61990000D02*
X149000000Y-61990000D01*
X150675000Y-61990000D02*
X151325000Y-61990000D01*
X150675000Y-65110000D02*
X150025000Y-65110000D01*
X150675000Y-65110000D02*
X151325000Y-65110000D01*
%TO.C,motor-1*%
X133690000Y-68175000D02*
X133690000Y-70235000D01*
X135810000Y-66115000D02*
X135810000Y-67175000D01*
X133690000Y-70235000D02*
X135810000Y-70235000D01*
X135810000Y-68175000D02*
X135810000Y-70235000D01*
X134750000Y-66115000D02*
X135810000Y-66115000D01*
X133690000Y-68175000D02*
X135810000Y-68175000D01*
%TO.C,motor-4*%
X196165000Y-70355000D02*
X198285000Y-70355000D01*
X198285000Y-68295000D02*
X198285000Y-70355000D01*
X197225000Y-66235000D02*
X198285000Y-66235000D01*
X196165000Y-68295000D02*
X196165000Y-70355000D01*
X198285000Y-66235000D02*
X198285000Y-67295000D01*
X196165000Y-68295000D02*
X198285000Y-68295000D01*
%TO.C,battery-1*%
X194035000Y-104860000D02*
X194035000Y-102740000D01*
X189915000Y-103800000D02*
X189915000Y-102740000D01*
X189915000Y-102740000D02*
X190975000Y-102740000D01*
X191975000Y-104860000D02*
X194035000Y-104860000D01*
X191975000Y-102740000D02*
X194035000Y-102740000D01*
X191975000Y-104860000D02*
X191975000Y-102740000D01*
%TO.C,D1*%
X138080000Y-70140000D02*
X141020000Y-70140000D01*
X141020000Y-65480000D02*
X138080000Y-65480000D01*
X138080000Y-70920000D02*
X141020000Y-70920000D01*
X138080000Y-65480000D02*
X138080000Y-70920000D01*
X139550000Y-71940000D02*
X139550000Y-70920000D01*
X141020000Y-70920000D02*
X141020000Y-65480000D01*
X139550000Y-64460000D02*
X139550000Y-65480000D01*
X138080000Y-69900000D02*
X141020000Y-69900000D01*
X138080000Y-70020000D02*
X141020000Y-70020000D01*
%TO.C,Q3*%
X184250000Y-99910000D02*
X184900000Y-99910000D01*
X184250000Y-96790000D02*
X182575000Y-96790000D01*
X184250000Y-99910000D02*
X183600000Y-99910000D01*
X184250000Y-96790000D02*
X184900000Y-96790000D01*
%TO.C,D3*%
X195420000Y-90880000D02*
X192480000Y-90880000D01*
X192480000Y-96320000D02*
X195420000Y-96320000D01*
X195420000Y-91660000D02*
X192480000Y-91660000D01*
X192480000Y-90880000D02*
X192480000Y-96320000D01*
X195420000Y-91900000D02*
X192480000Y-91900000D01*
X193950000Y-89860000D02*
X193950000Y-90880000D01*
X193950000Y-97340000D02*
X193950000Y-96320000D01*
X195420000Y-96320000D02*
X195420000Y-90880000D01*
X195420000Y-91780000D02*
X192480000Y-91780000D01*
%TO.C,D2*%
X142495000Y-92175000D02*
X139555000Y-92175000D01*
X142495000Y-91935000D02*
X139555000Y-91935000D01*
X142495000Y-91155000D02*
X139555000Y-91155000D01*
X142495000Y-96595000D02*
X142495000Y-91155000D01*
X141025000Y-90135000D02*
X141025000Y-91155000D01*
X139555000Y-96595000D02*
X142495000Y-96595000D01*
X141025000Y-97615000D02*
X141025000Y-96595000D01*
X139555000Y-91155000D02*
X139555000Y-96595000D01*
X142495000Y-92055000D02*
X139555000Y-92055000D01*
%TO.C,z4*%
X186705000Y-70410000D02*
X189645000Y-70410000D01*
X189645000Y-65750000D02*
X186705000Y-65750000D01*
X189645000Y-71190000D02*
X189645000Y-65750000D01*
X186705000Y-71190000D02*
X189645000Y-71190000D01*
X188175000Y-72210000D02*
X188175000Y-71190000D01*
X188175000Y-64730000D02*
X188175000Y-65750000D01*
X186705000Y-70170000D02*
X189645000Y-70170000D01*
X186705000Y-70290000D02*
X189645000Y-70290000D01*
X186705000Y-65750000D02*
X186705000Y-71190000D01*
D12*
%TO.C,LED4*%
X196290000Y-63570000D02*
G75*
G03*
X196290000Y-63570000I-50000J0D01*
G01*
D11*
%TO.C,rightIfAntennaOnTop1*%
X178460000Y-66140000D02*
X176340000Y-66140000D01*
X176340000Y-96260000D02*
X176340000Y-95200000D01*
X178460000Y-94200000D02*
X176340000Y-94200000D01*
X176340000Y-94200000D02*
X176340000Y-66140000D01*
X177400000Y-96260000D02*
X176340000Y-96260000D01*
X178460000Y-94200000D02*
X178460000Y-66140000D01*
%TO.C,MPU1*%
X160450000Y-57935000D02*
X160450000Y-55815000D01*
X160450000Y-57935000D02*
X174510000Y-57935000D01*
X174510000Y-57935000D02*
X174510000Y-55815000D01*
X158390000Y-55815000D02*
X159450000Y-55815000D01*
X160450000Y-55815000D02*
X174510000Y-55815000D01*
X158390000Y-56875000D02*
X158390000Y-55815000D01*
%TO.C,z3*%
X190545000Y-91755000D02*
X187605000Y-91755000D01*
X189075000Y-89835000D02*
X189075000Y-90855000D01*
X187605000Y-90855000D02*
X187605000Y-96295000D01*
X187605000Y-96295000D02*
X190545000Y-96295000D01*
X190545000Y-91875000D02*
X187605000Y-91875000D01*
X190545000Y-96295000D02*
X190545000Y-90855000D01*
X190545000Y-91635000D02*
X187605000Y-91635000D01*
X190545000Y-90855000D02*
X187605000Y-90855000D01*
X189075000Y-97315000D02*
X189075000Y-96295000D01*
%TO.C,motor-2*%
X137335000Y-92040000D02*
X135215000Y-92040000D01*
X136275000Y-96160000D02*
X135215000Y-96160000D01*
X135215000Y-96160000D02*
X135215000Y-95100000D01*
X135215000Y-94100000D02*
X135215000Y-92040000D01*
X137335000Y-94100000D02*
X135215000Y-94100000D01*
X137335000Y-94100000D02*
X137335000Y-92040000D01*
%TO.C,Q4*%
X181175000Y-65060000D02*
X180525000Y-65060000D01*
X181175000Y-61940000D02*
X181825000Y-61940000D01*
X181175000Y-65060000D02*
X182850000Y-65060000D01*
X181175000Y-61940000D02*
X180525000Y-61940000D01*
%TO.C,motor-3*%
X197515000Y-95660000D02*
X197515000Y-94600000D01*
X199635000Y-91540000D02*
X197515000Y-91540000D01*
X197515000Y-93600000D02*
X197515000Y-91540000D01*
X199635000Y-93600000D02*
X199635000Y-91540000D01*
X198575000Y-95660000D02*
X197515000Y-95660000D01*
X199635000Y-93600000D02*
X197515000Y-93600000D01*
D12*
%TO.C,LED5*%
X148465000Y-73025000D02*
G75*
G03*
X148465000Y-73025000I-50000J0D01*
G01*
D11*
%TO.C,z2*%
X147520000Y-91075000D02*
X144580000Y-91075000D01*
X147520000Y-92095000D02*
X144580000Y-92095000D01*
X144580000Y-96515000D02*
X147520000Y-96515000D01*
X147520000Y-96515000D02*
X147520000Y-91075000D01*
X147520000Y-91975000D02*
X144580000Y-91975000D01*
X146050000Y-90055000D02*
X146050000Y-91075000D01*
X147520000Y-91855000D02*
X144580000Y-91855000D01*
X146050000Y-97535000D02*
X146050000Y-96515000D01*
X144580000Y-91075000D02*
X144580000Y-96515000D01*
%TO.C,leftIfAntennaOnTop1*%
X154425000Y-65940000D02*
X155485000Y-65940000D01*
X155485000Y-65940000D02*
X155485000Y-67000000D01*
X153365000Y-68000000D02*
X153365000Y-96060000D01*
X153365000Y-68000000D02*
X155485000Y-68000000D01*
X153365000Y-96060000D02*
X155485000Y-96060000D01*
X155485000Y-68000000D02*
X155485000Y-96060000D01*
D12*
%TO.C,LED3*%
X135690000Y-98750000D02*
G75*
G03*
X135690000Y-98750000I-50000J0D01*
G01*
%TD*%
M02*
