%TF.GenerationSoftware,KiCad,Pcbnew,(6.0.1)*%
%TF.CreationDate,2023-01-18T20:59:41+05:30*%
%TF.ProjectId,drone,64726f6e-652e-46b6-9963-61645f706362,rev?*%
%TF.SameCoordinates,Original*%
%TF.FileFunction,Soldermask,Bot*%
%TF.FilePolarity,Negative*%
%FSLAX46Y46*%
G04 Gerber Fmt 4.6, Leading zero omitted, Abs format (unit mm)*
G04 Created by KiCad (PCBNEW (6.0.1)) date 2023-01-18 20:59:41*
%MOMM*%
%LPD*%
G01*
G04 APERTURE LIST*
%ADD10R,2.200000X2.200000*%
%ADD11O,2.200000X2.200000*%
%ADD12R,1.350000X1.350000*%
%ADD13O,1.350000X1.350000*%
G04 APERTURE END LIST*
D10*
%TO.C,D4*%
X192375000Y-73525000D03*
D11*
X192375000Y-63365000D03*
%TD*%
%TO.C,z1*%
X144375000Y-63120000D03*
D10*
X144375000Y-73280000D03*
%TD*%
D12*
%TO.C,motor-1*%
X134750000Y-67175000D03*
D13*
X134750000Y-69175000D03*
%TD*%
D12*
%TO.C,motor-4*%
X197225000Y-67295000D03*
D13*
X197225000Y-69295000D03*
%TD*%
%TO.C,battery-1*%
X192975000Y-103800000D03*
D12*
X190975000Y-103800000D03*
%TD*%
D10*
%TO.C,D1*%
X139550000Y-73280000D03*
D11*
X139550000Y-63120000D03*
%TD*%
D10*
%TO.C,D3*%
X193950000Y-88520000D03*
D11*
X193950000Y-98680000D03*
%TD*%
D10*
%TO.C,D2*%
X141025000Y-88795000D03*
D11*
X141025000Y-98955000D03*
%TD*%
%TO.C,z4*%
X188175000Y-63390000D03*
D10*
X188175000Y-73550000D03*
%TD*%
D12*
%TO.C,rightIfAntennaOnTop1*%
X177400000Y-95200000D03*
D13*
X177400000Y-93200000D03*
X177400000Y-91200000D03*
X177400000Y-89200000D03*
X177400000Y-87200000D03*
X177400000Y-85200000D03*
X177400000Y-83200000D03*
X177400000Y-81200000D03*
X177400000Y-79200000D03*
X177400000Y-77200000D03*
X177400000Y-75200000D03*
X177400000Y-73200000D03*
X177400000Y-71200000D03*
X177400000Y-69200000D03*
X177400000Y-67200000D03*
%TD*%
D12*
%TO.C,MPU1*%
X159450000Y-56875000D03*
D13*
X161450000Y-56875000D03*
X163450000Y-56875000D03*
X165450000Y-56875000D03*
X167450000Y-56875000D03*
X169450000Y-56875000D03*
X171450000Y-56875000D03*
X173450000Y-56875000D03*
%TD*%
D10*
%TO.C,z3*%
X189075000Y-88495000D03*
D11*
X189075000Y-98655000D03*
%TD*%
D12*
%TO.C,motor-2*%
X136275000Y-95100000D03*
D13*
X136275000Y-93100000D03*
%TD*%
D12*
%TO.C,motor-3*%
X198575000Y-94600000D03*
D13*
X198575000Y-92600000D03*
%TD*%
D10*
%TO.C,z2*%
X146050000Y-88715000D03*
D11*
X146050000Y-98875000D03*
%TD*%
D12*
%TO.C,leftIfAntennaOnTop1*%
X154425000Y-67000000D03*
D13*
X154425000Y-69000000D03*
X154425000Y-71000000D03*
X154425000Y-73000000D03*
X154425000Y-75000000D03*
X154425000Y-77000000D03*
X154425000Y-79000000D03*
X154425000Y-81000000D03*
X154425000Y-83000000D03*
X154425000Y-85000000D03*
X154425000Y-87000000D03*
X154425000Y-89000000D03*
X154425000Y-91000000D03*
X154425000Y-93000000D03*
X154425000Y-95000000D03*
%TD*%
M02*
